<?xml version="1.0" standalone="no"?>
<svg version="1.1" id="Layer_1" xmlns="http://www.w3.org/2000/svg" xmlns:xlink="http://www.w3.org/1999/xlink" x="0px" y="0px" width="595.28px" height="595.28px" viewBox="0 0 595.28 595.28" enable-background="new 0 0 595.28 595.28" xml:space="preserve">
<path id="color_x5F_2" fill="#ffbb12" d="M111.649,501.034c-0.081,0.051-0.214,0.13-0.379,0.228l16.349-11.041
	c0,0,0.052,0.117,0.129,0.293C122.511,494.385,116.852,497.764,111.649,501.034z M159.26,481.129
	c-0.159,0.145-0.48,0.265-0.841,0.345c-5.028,4.325-13.536,11.07-20.483,13.973c-0.213,0.112-0.407,0.207-0.566,0.273
	c-0.385,0.16-0.79,0.291-1.205,0.394c-4.483,1.478-8.051,0.95-9.146-3.517c-1.709,1.184-3.425,2.325-5.113,3.433
	c-4.442,2.917-8.997,5.658-13.44,8.572c-1.275,0.836-7.308,3.967-6.862,6.026c0.443,2.051,7.306,1.617,8.831,1.729
	c6.115,0.446,12.295,0.892,18.429,0.609c2.877-0.133,6.566-0.029,9.163-1.444c2.331-1.27,3.792-4.893,5.1-7.083
	c1.563-2.619,3.106-5.502,4.876-8.199c0.071-0.308,0.141-0.617,0.215-0.923c0.104-0.427,0.553-0.749,1.07-0.928
	c1.233-1.681,2.584-3.244,4.141-4.538c0.548-0.455,3.287-0.732,2.633-0.188c-1.92,1.596-3.528,3.534-4.975,5.633
	c-0.641,2.697-1.135,5.449-1.501,8.195c-0.384,2.882-1.714,8.594,2.758,7.924c0.778-5.424,1.907-10.611,5.051-15.231
	c3.449-5.071,7.265-10.761,3.255-16.325C160.185,480.283,159.724,480.708,159.26,481.129z M248.379,497.52
	c-14.251,4.357-25.126-9.3-32.817-19.346c-0.103,0.104-0.197,0.212-0.303,0.315c-0.191,0.187-0.511,0.318-0.864,0.392
	c-4.649,4.239-3.314,10.088,1.054,14.643c0.364,0.06,0.671,0.229,0.805,0.549c2.277,5.461,1.79,12.542-0.052,18.2
	c2.068,0.109,4.137,0.257,6.207,0.344c-1.114-3.821-0.272-7.876,0.201-11.793c-1.056-0.251-0.569-1.031,0.232-1.512
	c0.516-1.036,2.865-1.257,2.835,0.033c2.966,1.111,5.192,3.509,7.593,5.559c4.273,3.649,9.073,6.413,14.835,6.71
	c4.96,0.256,9.936-0.07,14.888-0.355c1.895-0.109,4.589-0.701,6.617-0.271C269.504,506.474,252.482,498.725,248.379,497.52z
	 M299.58,255.275c-6.559-0.103-13.168-2.542-18.729-6.762c1.26,4.229,2.14,8.534,1.554,12.692
	c2.846,7.019,5.013,14.281,5.848,21.699c0.276-0.021,0.51,0.011,0.638,0.128c4.504,4.112,11.277,4.934,16.766,2.379
	c-0.037-0.104-0.063-0.216-0.065-0.346C305.457,274.927,303.326,264.694,299.58,255.275z M210.199,324.527
	c1.979-5.824,4.422-11.97,5.695-18.058L210.199,324.527z M280.48,264.465c-5.336,5.07-14.018,7.384-21.164,5.619
	c-1.46,5.603-3.714,10.989-6.947,15.935c-7.924,12.119-18.887,19.587-33.316,18.858c-0.895,4.432-2.621,8.896-3.924,13.089
	c-2.347,7.55-4.788,15.07-7.271,22.575c-0.646,1.949-1.293,3.897-1.945,5.844c0.043,0.027,0.084,0.053,0.133,0.091
	c1.317,1.011,2.64,2.015,3.98,2.994c7.998,5.836,17.116,9.728,26.914,10.72c0.738-0.177,1.529-0.154,1.627,0.147
	c1.492,0.101,3,0.134,4.521,0.096c5.335-0.133,10.952-0.831,15.869-3.044c4.776-2.149,10.744-5.304,14.335-9.249
	c5.371-5.9,7.438-14.539,8.851-22.171c2.556-13.822,3.482-28.284,2.828-42.337c-0.013-0.279,0.111-0.515,0.309-0.705
	C284.496,276.637,282.755,270.463,280.48,264.465z M269.135,268.915c-0.438,0.028-0.878,0.056-1.348,0.056
	c-2.854,0-5.16-0.149-6.81-0.306C263.616,269.395,266.43,269.455,269.135,268.915z M335.293,177.656
	c-9.963,1.707-20.245-0.517-30.088,1.75c-0.146,0.074-0.286,0.151-0.418,0.232c-0.229,0.141-0.437,0.261-0.637,0.375
	c1.584,12.49,1.034,26.342-4.281,37.886c-2.28,4.95-7.924,12.296-12.93,5.38c-7.406-10.23-8.58-23.975-14.688-34.96
	c-3.189-5.738-7.436-11.165-13.436-14.163c-3.998-1.998-8.313-3.261-12.51-4.795c0.392,0.925,0.764,1.853,1.15,2.75
	c1.667,1.945,4.237,4.639,7.218,7.384c4.568,3.063,9.616,5.236,14.382,8.766c5.361,3.971,7.334,9.915,7.348,16.395
	c0.023,10.897-1.828,22.42,1.041,33.09c0.494,1.839,1.123,3.741,1.77,5.68c11.489,12.022,31.061,13.959,40.099-0.733
	c0.797-1.566,1.646-3.319,2.499-5.134C329.591,218.741,335.95,198.193,335.293,177.656z M292.64,223.951
	c-0.375-0.005-0.77-0.067-1.187-0.203C291.835,223.942,292.231,224.031,292.64,223.951z M301.495,182.934l0.214,15.157
	C302.115,193.043,302.006,187.946,301.495,182.934z M223.211,246.296c-0.002-0.007-0.004-0.014-0.004-0.021
	c-0.141-0.782-0.324-1.561-0.549-2.336c-0.602,0.191-1.159,0.344-1.49,0.469c-3.545,1.333-7.109,2.613-10.674,3.894
	c-4.017,1.445-8.037,2.879-12.047,4.346c-1.514,0.554-3.029,1.106-4.535,1.684c-0.574,0.22-1.15,0.438-1.718,0.675
	c-0.651,0.272-0.312,0.046-0.163-0.182c-0.375,0.396-1.937,1.005-2.472,0.889c-0.017-0.003-0.034-0.007-0.051-0.011
	c-0.159-0.035-0.333-0.166-0.251-0.35c0.484-1.072,3.229-1.643,4.164-1.995c0.896-0.337,1.798-0.664,2.697-0.996v-0.175
	c-0.408,0.006-0.776-0.091-0.846-0.424c-0.004-0.017-0.007-0.034-0.011-0.051c-0.058-0.277,0.121-0.531,0.41-0.737
	c-0.473,0.047,0.257-0.883,0.554-1.713c0.555-1.547,1.088-3.102,1.61-4.66c1.585-4.734,3.113-9.486,4.595-14.253
	c1.794-5.772,3.575-11.562,5.216-17.389c-0.013-0.158,0.03-0.309,0.126-0.446c1.168-4.165,2.264-8.348,3.23-12.56
	c0.22-0.958,3.133-1.424,2.893-0.378c-0.988,4.307-2.101,8.589-3.291,12.852c3.34,10.157,13.645,15.408,18.225,24.827
	c1.137-1.716,2.567-3.068,4.782-3.42c1.847-0.294,3.563,1.419,3.536,3.227c-0.018,1.132-0.278,2.191-0.596,3.24
	c3.802-2.925,8.271-4.892,11.405-0.927c0.173,0.22,0.17,0.439,0.063,0.643c1.611,0.079,3.1,0.742,4.298,2.312
	c0.016,0.021,0.01,0.048-0.005,0.079c0.805,0.231,1.606,0.627,2.399,1.237c0.242,0.187,0.173,0.419-0.061,0.638
	c0.572,0.298,0.787,0.833-0.068,1.36c-4.357,2.681-8.873,5.55-12.124,9.58c-2.62,3.247-4.12,7.132-6.637,10.412
	c-2.926,3.813-6.296,4.808-9.738,2.874c0.03,0.259,0.077,0.516,0.113,0.774c0.825-0.215,1.812,0.029,1.833,0.937
	c0.256,11.117-3.875,21.23-8.678,31.032c0.131,0.154,0.202,0.357,0.176,0.622c-0.037,0.368-0.101,0.737-0.152,1.106
	c5.197,0.319,9.971-0.627,14.256-2.536c4.675-2.083,8.768-5.309,12.2-9.276c0.843-0.974,1.646-1.992,2.407-3.049
	c0.393-0.545,0.771-1.102,1.143-1.667c2.536-3.867,4.558-8.175,6-12.671c0.49-1.529,0.911-3.073,1.284-4.626
	c-0.052-0.09-0.02-0.192,0.075-0.299c2.92-12.417,2.164-25.489-1.32-37.772c-3.107-10.957-8.105-19.857-14.793-28.975
	c-7.912-10.788-16.967-23.865-29.501-29.625l-1.024,0.218c-3.287,1.568-6.529,3.212-9.474,5.308
	c-7.341,5.225-10.439,12.966-13.865,20.995c-5.603,13.133-10.771,26.825-13.397,40.947l-0.828,5.035
	c-0.135,0.962-0.261,1.925-0.369,2.891c-1.054,9.391-3.527,25.112,5.572,31.68c13.861,10.006,33.195,1.163,46.117-6.699
	C221.526,264.186,224.772,255.061,223.211,246.296z M186.167,285.033c-1.518-0.252-3.025-0.615-4.521-1.098
	C183.002,284.505,184.527,284.858,186.167,285.033z"></path>
<path id="color_x5F_1" d="M222.467,142.754c-0.42,0.512-1.29,0.749-1.924,0.749c-0.271,0-0.543,0-0.814,0
	c-0.369,0-1.18-0.159-0.742-0.69c0.42-0.512,1.29-0.749,1.924-0.749c0.271,0,0.543,0,0.814,0
	C222.094,142.063,222.904,142.223,222.467,142.754z M245.829,127.882c-0.552-0.312-1.331-0.116-1.885,0.096
	c-0.136,0.051-1.353,0.648-0.832,0.943c1.223,0.691,2.941,1.434,3.69,2.697c0.862,1.454-1.479,3.028-2.375,3.727
	c-0.44,0.344-0.383,0.714,0.207,0.772c0.66,0.065,1.52-0.136,2.049-0.549c1.275-0.995,3.211-2.318,3.193-4.135
	C249.861,129.747,246.988,128.537,245.829,127.882z M241.158,141.503c-1.824,0.15-3.073-1.708-3.65-3.179
	c-0.37-0.941-3.228-0.061-2.898,0.776c1.074,2.733,3.179,4.119,6.119,3.876c0.52-0.043,1.489-0.354,1.658-0.937
	C242.569,141.416,241.469,141.478,241.158,141.503z M235.027,127.977c-0.696,0.022-1.414,0.262-1.927,0.739
	c-0.55,0.51-1.16,0.35-1.839,0.144c-0.651-0.198-1.456,0.012-2.038,0.324c-0.289,0.155-0.968,0.729-0.308,0.93
	c2.38,0.724,5.006,0.223,6.843-1.484C236.277,128.147,235.314,127.968,235.027,127.977z M246.936,124.271
	c-0.153-0.018-0.308-0.032-0.459-0.06c-0.647-0.119-1.527,0.174-2.049,0.549c-0.498,0.358-0.329,0.676,0.207,0.774
	c1.9,0.349,4.355-0.153,5.342-1.976c0.285-0.526-1.033-0.428-1.191-0.403c-0.567,0.09-1.383,0.31-1.68,0.86
	C247.053,124.114,246.998,124.192,246.936,124.271z M358.928,112.902c-1.168-0.406-3.411,1.276-1.695,1.873
	c3.156,1.098,6.444,1.153,9.749,1.155c1.615,0.001,2.258-2.011,0.287-2.012C364.438,113.917,361.627,113.841,358.928,112.902z
	 M356.056,100.468c4.446-0.833,8.806-1.949,13.071-3.462c1.922-0.682,0.148-1.514-1.111-1.067c-3.756,1.333-7.615,2.317-11.53,3.05
	C355.172,99.234,354.052,100.843,356.056,100.468z M352.671,92.013c0.16-3.744,2.485-6.865,3.896-10.222
	c0.639-1.52-2.278-1.462-2.764-0.307c-1.484,3.536-3.896,6.816-4.063,10.763C349.676,93.735,352.617,93.29,352.671,92.013z
	 M286.839,313.521c-1.024,9.516-2.239,21.369-7.271,30.206c-0.002,0.019,0.002,0.035-0.002,0.055
	c-6.514,29.846-18.402,58-28.598,86.688c-4.815,13.546-10.379,27.77-12.744,42.004c-1.506,9.055,5.176,17.613,11.342,23.377
	c0.049,0.002,0.098,0.005,0.14,0.014c4.163,0.889,28.107,10.818,21.61,16.905c-0.356,0.334-1.342,0.511-1.996,0.43
	c-0.343,0.039-0.674,0.001-0.925-0.119c-0.102,0.012-0.254-0.001-0.463-0.044c-0.465,0.01-0.931,0.026-1.396,0.047
	c-0.922,0.045-1.843,0.094-2.764,0.146c-2.331,0.134-4.662,0.279-6.995,0.372c-4.56,0.181-9.133,0.365-13.628-0.545
	c-4.207-0.852-8.088-3.078-11.325-5.843c-2.051-1.751-4.054-3.939-6.45-5.298c-0.504,3.683-1.112,7.448,0.284,10.972
	c0.386,0.976-1.206,1.681-2.21,1.371c-2.686-0.025-5.365-0.241-8.047-0.39c-0.72,0.49-2.065,0.528-2.344-0.107
	c-0.004,0-0.008,0-0.012,0c-1.491-0.046-0.656-0.956,0.291-1.374c1.766-5.278,2.166-11.964,0.168-17.136
	c-0.162-0.04-0.303-0.106-0.406-0.208c-5.903-5.855-6.259-13.247,0.663-18.074c14.14-14.997,8.689-39.186,10.13-57.845
	c0.809-10.472,5.268-19.236,10.446-28.215c4.931-8.547,11.716-18.178,11.579-28.461c-2.063,0.163-4.107,0.211-6.099,0.109
	c-0.665-0.034-1.35-0.091-2.03-0.143c-2.311,5.689-4.783,11.446-8.378,16.436c-3.288,4.563-7.275,8.558-10.983,12.772
	c-6.851,7.789-11.425,14.987-14.88,24.718c-3.333,9.384-6.835,18.624-11.983,27.197c-7.762,12.923-17.865,24.118-28.828,34.385
	c4.04,4.713,2.867,9.871-0.27,14.811c-4.031,6.347-6.334,11.798-7.356,19.292c-0.063,0.47-0.681,0.83-1.331,0.977
	c-0.082,0.032-0.146,0.074-0.24,0.099c-3.712,0.98-7.415,0.314-7.331-4.172c0.04-2.152,0.257-4.326,0.583-6.487
	c-1.22,2.179-2.43,4.334-3.762,6.305c-2.362,3.494-5.838,4.379-9.888,4.978c-6.397,0.946-13.073,0.592-19.5,0.2
	c-4.093-0.25-9.277,0.163-13.22-1.149c-5.81-1.932,8.061-9.867,10.849-11.514c0.165-0.098,0.298-0.177,0.379-0.228
	c5.202-3.27,10.861-6.649,16.099-10.52c5.979-4.42,11.405-9.483,14.939-15.796c0.078-0.14,0.236-0.26,0.441-0.359
	c13.455-21.79,26.875-43.666,38.815-66.326c9.691-18.391,18.04-37.387,26.005-56.578c0.015-0.036,0.04-0.069,0.066-0.102
	c-1.627-1.2-3.233-2.426-4.818-3.661c-0.356-0.277-0.414-0.615-0.275-1.027c2.239-6.661,4.433-13.337,6.577-20.029
	c0.224-0.697,0.459-1.401,0.7-2.108c1.979-5.824,4.422-11.97,5.695-18.058c0.131-0.632,0.248-1.263,0.353-1.893
	c-0.55-0.266-0.318-0.811,0.187-1.217c0.004-0.025,0.006-0.051,0.01-0.077c-0.502-0.151-0.803-0.521-0.5-1.13
	c4.258-8.576,8.105-17.355,8.969-26.852c-0.168-0.043-0.293-0.121-0.344-0.25c-0.078-0.199-0.13-0.4-0.201-0.6
	c-11.219,6.681-25.041,12.765-38.2,10.583c-1.518-0.252-3.025-0.615-4.521-1.098c-0.301-0.098-0.604-0.191-0.903-0.298
	c-11.513-4.122-12.774-15.219-12.212-25.997c-0.136,0.001-0.264-0.012-0.372-0.05c-22.431-7.857-24.131-37.072-18.905-56.634
	c2.739-10.25,8.729-18.418,17.313-24.601c8.6-6.193,18.507-10.409,26.798-17.037c0.133-0.106,0.328-0.188,0.551-0.25
	c11.229-9.516,4.553-22.663,3.188-35.063c-0.789-7.173,1.058-12.189,8.301-12.612c1.565-4.382,3.999-7.786,8.849-8.888
	c6.061-1.377,11.844,1.167,17.343-2.888c0.42-0.31,1.057-0.375,1.569-0.27l1.27-0.885c2.939-2.584,6.092-4.872,9.878-6.319
	c4.737-1.811,12.57-1.096,15.293,3.844c4.266,7.739-2.017,13.444-9.302,15.461c-1.34,4.308,3.253,10.769,4.98,14.492
	c2.219,4.779,5.123,11.046,1.98,16.021c-4.836,7.654-14.535,11.392-17.394,19.789c0.379-0.066,0.75-0.042,1.019,0.122
	c1.824,1.111,3.069,2.763,4.064,4.608c0.185-0.008,0.362,0.013,0.517,0.076c8.13,3.323,16.871,5.044,23.116,11.719
	c7.444,7.956,10.726,18.468,14.258,28.543c1.686,4.805,3.188,10.298,6.211,14.475c0.665,0.919,1.486,1.995,2.396,2.458
	c0.382,0.194,0.778,0.283,1.187,0.203c0.474-0.093,0.961-0.406,1.457-1.032c1.614-2.04,2.767-4.433,3.687-6.856
	c2.184-5.75,3.432-11.823,3.926-17.972c0.406-5.048,0.297-10.145-0.214-15.157c-0.116-1.138-0.246-2.273-0.403-3.401
	c-0.1-0.715,0.625-1.113,1.206-1.295c2.572-0.807,5.171-1.245,7.784-1.487c-3.756-2.414-9.621-6.608-9.723-11.488
	c-0.074-3.513,2.408-5.846,5.472-6.902c-1.584-3.021-3.145-6.055-4.649-9.116c-0.51-1.037-3.048-4.798-2.742-6.626
	c-1.837,0.503-3.669,0.998-5.498,1.467c-0.265,0.2-0.621,0.342-1.037,0.35c-19.061,0.357-24.758-21.076-13.779-34.427
	c0.296-0.36,0.936-0.542,1.513-0.541c9.165-4.239,18.251-8.594,26.689-14.169c3.101-2.048,6.221-4.067,9.318-6.12
	c1.252-0.83,2.511-1.653,3.74-2.515c1.35-0.947,1.204-0.414,2.445-0.681c0.003-0.006,0.005-0.012,0.007-0.019
	c-1.293,0.204-1.387-0.713,0.139-1.165c0.002,0,0.004-0.001,0.006-0.001c-0.076-0.605,0.516-1.333,1.492-1.321
	c13.317,0.165,25.115,14.72,28.482,26.599c1.609,5.681,4.102,14.752,0.512,20.224c-1.502,2.29-4.14,5.12-7.167,4.95
	c-0.35,0.167-0.753,0.26-1.11,0.236c-0.082,0.033-0.164,0.066-0.243,0.098c-0.71,0.291-1.646,0.206-1.841-0.081
	c-0.09,0.083-0.279,0.141-0.771,0.173c-0.756,0.049-1.511,0.103-2.266,0.167c-1.687,0.145-3.372,0.3-5.057,0.462
	c-3.628,0.35-7.254,0.73-10.886,1.035c-2.665,0.224-5.316,0.617-7.954,1.119c1.029,2.13,1.933,4.319,2.969,6.446
	c0.242-0.107,0.471-0.205,0.661-0.281c3.978-1.599,9.327-3.165,13.52-1.441c0.564-0.094,1.091-0.037,1.245,0.299
	c0.76,1.664-1.356,3.584-3.643,5.09c0.352,0.007,0.746,0.022,1.166,0.048c0.359-0.018,0.726-0.045,1.074-0.049
	c0.229-0.003,0.611,0.062,0.781,0.23c3.177,0.438,6.541,1.641,4.924,4.8c-0.717,1.399-1.963,2.465-3.447,3.265
	c0.344-0.038,0.634,0.002,0.771,0.185c0.898,1.188,1.843,3.007,0.793,4.406c0.248,0.152,0.41,0.396,0.402,0.752
	c-0.1,4.903-1.788,10.858-5.736,14.14c1.952-0.15,3.898-0.397,5.834-0.822c0.686-0.15,1.666-0.113,1.705,0.774
	c0.605,13.694-2.09,27.397-6.09,40.445c-1.874,6.114-3.962,12.166-6.34,18.104c-1.728,4.315-3.524,8.685-6.761,12.124
	c-4.7,4.997-10.399,7.575-16.283,8.173c3.663,9.437,5.683,19.62,5.816,29.738c0.011,0.813-0.985,1.279-1.822,1.212
	c-5.688,2.528-12.818,2.888-18.2-0.328c0.249,3.876,0.115,7.791-0.497,11.732c-0.006,0.038-0.023,0.075-0.041,0.112
	C287.796,302.938,287.405,308.262,286.839,313.521z M232.302,168.201c0.435-0.296,1.05-0.343,1.557-0.227
	c-0.53-0.666-1.137-1.244-1.87-1.631c-2.137-1.129-4.564-1.38-6.837-2.156c-0.252,0.031-0.498,0.02-0.717-0.036
	c-0.076,0.014-0.152,0.024-0.229,0.031c0.795-0.044-0.125,0.234-0.537,0.584c-0.573,0.488-1.137,0.997-1.636,1.563
	c-0.28,0.318-1.071,0.93-0.724,1.375c0.501,0.642,1.021,1.268,1.575,1.865c1.713,1.846,3.525,3.709,5.515,5.305
	C229.074,172.292,230.009,169.765,232.302,168.201z M223.504,162.289c0.122-0.047,0.244-0.091,0.363-0.122
	c0.012-0.082,0.025-0.166,0.037-0.248L223.504,162.289z M260.978,268.665c2.639,0.73,5.452,0.791,8.157,0.25
	c4.027-0.805,7.803-2.924,10.355-6.118c-0.101-0.114-0.15-0.262-0.113-0.457c0.032-0.169,0.044-0.337,0.07-0.506
	c-0.035-0.088-0.069-0.177-0.105-0.265c-0.063-0.153,0.03-0.316,0.208-0.469c0.651-5.646-1.44-11.241-3.314-16.769
	c-0.146-0.163-0.19-0.329-0.164-0.488c-0.887-2.638-1.702-5.261-2.115-7.867c-1.565-9.87-0.437-19.736-0.458-29.664
	c-0.021-9.096-3.321-15.245-11.494-19.601c-6.516-3.472-12.113-6.31-16.77-12.014c-2.604-0.78-4.535-2.832-6.688-4.452
	c2.271,4.69,4.253,9.125,9.464,11.133c0.194,0.075-1.949,1.266-2.736,0.962c-4.739-1.826-6.918-5.571-8.982-9.969
	c-0.484-1.03-1.004-2.217-1.661-3.298c-0.089,0.127-0.225,0.259-0.422,0.393c-2.39,1.63-2.828,4.956-3.468,7.57
	c-0.244,0.997-1.744,1.494-2.587,0.938c-2.357-1.552-4.479-3.59-6.45-5.6c-0.718-0.732-2.722-2.3-3.327-3.719
	c-1.567,0.839-3.169,1.628-4.787,2.396c14.091,6.562,24.054,21.888,32.772,34.097c7.196,10.076,11.854,21.494,13.895,33.751
	c1.609,9.665,1.686,19.801-0.498,29.372C260.16,268.419,260.566,268.551,260.978,268.665z M305.591,285.066
	c-0.134-10.139-2.265-20.372-6.011-29.791c-6.559-0.103-13.168-2.542-18.729-6.762c1.26,4.229,2.14,8.534,1.554,12.692
	c2.846,7.019,5.013,14.281,5.848,21.699c0.276-0.021,0.51,0.011,0.638,0.128c4.504,4.112,11.277,4.934,16.766,2.379
	C305.619,285.308,305.593,285.196,305.591,285.066z M331.649,162.999c2.351-0.649,2.067-2.79,1.128-4.44
	c-0.175,0.009-0.344-0.001-0.498-0.041c-0.473-0.121-0.959-0.218-1.449-0.3c-1.992,0.499-4.037,0.683-5.686,0.629
	c-0.353-0.012-0.905-0.052-1.569-0.128c-0.812,0.53-0.972,1.38,0.257,2.298C325.887,162.553,329.054,163.716,331.649,162.999z
	 M330.02,150.06c-1.109,0.061-2.275,0.201-3.447,0.441c-0.393,0.201-0.723,0.364-0.952,0.476c-1.249,0.612-3.085,1.376-5.013,1.854
	c-0.225,0.148-0.458,0.289-0.666,0.45c-3.363,2.611,2.371,3.747,5.217,4.037c1.827-0.367,3.731-0.529,5.612-0.443
	c1.95-0.514,3.756-1.479,4.392-3.214C336.161,150.933,332.683,150.227,330.02,150.06z M316.252,151.01
	c0.995,0.621,2.132,0.813,3.308,0.728c1.907-1.085,4.087-1.878,6.315-2.393c0.314-0.194,0.616-0.387,0.895-0.575
	c0.988-0.666,4.271-2.621,3.981-4.238c-0.252,0.034-0.474,0.029-0.618-0.034c-3.151-1.365-7.255-0.274-10.258,1.042
	C318.331,146.215,313.022,148.992,316.252,151.01z M324.817,85.702c-2.349,5.699-1.67,12.044,0.295,17.975
	c0.11-0.037,0.22-0.069,0.325-0.091c4.215-0.867,10.209-4.857,14.62-2.59c2.538,1.304,6.849,7.166,3.523,9.668
	c-0.195,0.147-0.395,0.276-0.596,0.396c-2.665,3.522-5.714,6.69-8.83,9.813c3.132,4.5,6.744,8.679,10.93,12.155
	c0.155-0.017,0.313-0.014,0.472,0.021c2.677,0.595,5.024-4.14,5.342-6.16c0.383-2.445,0.315-4.854-0.019-7.309
	c-0.721-5.305-1.913-10.91-4.62-15.597C341.934,96.491,334.106,86.829,324.817,85.702z M341.773,109.357
	c0.016-3.063-2.34-7.411-5.622-7.728c-0.295-0.028-0.591-0.033-0.89-0.027c0,0.009,0.005,0.017,0.002,0.027
	c-0.879,2.689-0.021,5.482,2.235,7.232c0.878,0.681,1.889,1.328,2.987,1.596c0.156-0.205,0.324-0.397,0.477-0.604
	C341.14,109.613,341.439,109.449,341.773,109.357z M332.412,102.168c0.015-0.045,0.041-0.088,0.074-0.129
	c-2.396,0.647-4.82,1.833-7.114,2.398c1.103,3.136,2.536,6.142,4.049,8.849c1.079,1.93,2.231,3.844,3.459,5.717
	c2.26-2.286,4.456-4.623,6.479-7.117C334.979,111.504,330.952,106.637,332.412,102.168z M312.947,137.89
	c0.424-0.251,0.959-0.366,1.39-0.278c3.618-0.737,7.261-1.342,10.951-1.677c4.376-0.398,8.745-0.86,13.12-1.25
	c1.053-0.094,2.508-0.406,3.883-0.505c-7.081-6.012-12.881-13.978-16.898-22.273c-3.675-7.589-6.566-16.496-3.969-24.75
	c-0.672,0.412-1.346,0.784-1.862,1.127c-3.354,2.235-6.739,4.422-10.103,6.644c-9.116,6.022-18.826,10.788-28.739,15.367
	c-0.04,0.114-0.105,0.237-0.22,0.376c-9.392,11.42-5.635,32.228,11.732,31.902c0.505-0.009,0.83,0.105,1.012,0.281
	C299.8,141.168,306.332,139.306,312.947,137.89z M308.816,157.751c2.74-0.21,6.047,0.365,7.736,2.381
	c2.37,2.829-0.961,5.144-3.375,6.302c-0.181,0.087-0.453,0.144-0.747,0.173c3.029,5.397,13.88,5.542,13.083-2.271
	c-0.011-0.107,0.033-0.21,0.113-0.307c-1.792-0.316-3.482-1.014-4.783-2.261c-1.538-1.473-0.566-2.592,0.832-3.33
	c-3.628-0.65-7.986-2.161-4.422-5.147c0.006-0.005,0.014-0.009,0.02-0.014c-1.632-0.006-3.124-0.42-4.148-1.553
	c-1.857-2.055,0.157-4.056,2.406-5.454c-1.116-2.282-2.068-4.64-3.191-6.918c-0.049-0.1-0.075-0.197-0.091-0.292
	c-3.706,0.812-7.388,1.797-11.052,2.801c0.171,0.188,0.093,0.458-0.473,0.801c0.903-0.549,0.481-0.443,0.941,0.646
	c0.291,0.689,0.596,1.372,0.914,2.049c0.842,1.792,1.717,3.568,2.609,5.336C306.38,153.055,307.588,155.409,308.816,157.751z
	 M312.689,176.564c4.515-0.209,9.064,0.035,13.596-0.029c0.111-0.078,0.238-0.154,0.402-0.222c4.709-1.957,6.467-8.215,6.735-13.022
	c-0.51,0.211-1.032,0.393-1.558,0.513c-1.07,0.245-2.237,0.399-3.422,0.428c0.156,9.089-16.008,10.133-19.211,2.547
	c-0.187-0.442,1.438-1.1,2.344-1.043c2.077-1.039,4.342-3.151,1.693-5.063c-1.986-1.434-5.674-2.384-7.803-0.731
	c-6.827,5.299,3.314,13.191,7.654,15.957C313.359,176.051,313.117,176.321,312.689,176.564z M286.939,223.279
	c-7.406-10.23-8.58-23.975-14.688-34.96c-3.189-5.738-7.436-11.165-13.436-14.163c-3.998-1.998-8.313-3.261-12.51-4.795
	c0.392,0.925,0.764,1.853,1.15,2.75c0.206,0.477,0.414,0.946,0.634,1.4c0.046,0.095,0.054,0.184,0.054,0.271
	c1.984,2.336,4.193,4.145,6.53,5.712c4.568,3.063,9.616,5.236,14.382,8.766c5.361,3.971,7.334,9.915,7.348,16.395
	c0.023,10.897-1.828,22.42,1.041,33.09c0.494,1.839,1.123,3.741,1.77,5.68c11.489,12.022,31.061,13.959,40.099-0.733
	c0.712-1.156,1.365-2.402,1.937-3.768c0.189-0.453,0.374-0.912,0.563-1.366c7.778-18.817,14.138-39.365,13.48-59.903
	c-9.963,1.707-20.245-0.517-30.088,1.75c-0.367,0.084-0.731,0.183-1.097,0.28c0.015,0.109,0.028,0.219,0.042,0.328
	c1.584,12.49,1.034,26.342-4.281,37.886C297.589,222.849,291.945,230.195,286.939,223.279z M239.31,163.948
	c-0.146,0.818-0.237,1.673-0.251,2.581c-0.005,0.297-0.19,0.551-0.466,0.744c1.165,0.65,2.23,1.502,3.27,2.32
	c0.628,0.495,1.305,1.081,2.019,1.627C242.778,168.497,241.595,165.68,239.31,163.948z M247.288,112.064
	c-1.808,0.239-3.595,0.242-5.227-0.014c-4.999,5.864-14.082,8.335-21.824,6.962c4.493,4.658,5.104,13.99,3.177,19.483
	c1.096,1.043-1.326,2.392-2.312,1.6c-2.769-2.228-8.037,5.541-2.077,6.948c1.967,0.398,3.813,0.138,5.535-0.778
	c0.56-0.245,1.561-0.398,1.97,0.22c3.058,4.629,0.706,11.173,0.172,16.277c2.942,1.341,6.535,1.14,9.007,3.419
	c0.09,0.083,0.165,0.175,0.251,0.26c0.064-0.013,0.129-0.025,0.192-0.031c0.435-12.137,12.089-14.761,17.79-23.784
	c3.825-6.054-0.209-13.095-2.951-18.809C249.482,120.671,246.395,115.817,247.288,112.064z M223.859,272.86
	c-2.333-8.674,0.913-17.799-0.648-26.564c-0.002-0.007-0.003-0.014-0.004-0.021c-0.141-0.782-0.324-1.561-0.549-2.336
	c-0.602,0.191-1.159,0.344-1.49,0.469c-3.545,1.333-7.109,2.613-10.674,3.894c-4.017,1.445-8.037,2.879-12.047,4.346
	c-1.514,0.554-3.029,1.106-4.535,1.684c-0.574,0.22-1.15,0.438-1.718,0.675c-0.651,0.272-0.312,0.046-0.163-0.182
	c-0.375,0.396-1.937,1.005-2.472,0.889c-0.017-0.003-0.034-0.007-0.051-0.011c-0.159-0.035-0.333-0.166-0.251-0.35
	c0.484-1.072,3.229-1.643,4.164-1.995c0.896-0.337,1.798-0.664,2.697-0.996c0.257-0.095,0.514-0.19,0.771-0.284
	c-0.23,0.06-0.506,0.105-0.771,0.109c-0.408,0.006-0.776-0.091-0.846-0.424c-0.004-0.017-0.007-0.034-0.011-0.051
	c-0.058-0.277,0.121-0.531,0.41-0.737c-0.473,0.047,0.257-0.883,0.554-1.713c0.555-1.547,1.088-3.102,1.61-4.66
	c1.585-4.734,3.113-9.486,4.595-14.253c1.794-5.772,3.575-11.562,5.216-17.389c-0.013-0.158,0.03-0.309,0.126-0.446
	c1.168-4.165,2.264-8.348,3.23-12.56c0.22-0.958,3.133-1.424,2.893-0.378c-0.988,4.307-2.101,8.589-3.291,12.852
	c3.34,10.157,13.645,15.408,18.225,24.827c1.137-1.716,2.567-3.068,4.782-3.42c1.847-0.294,3.563,1.419,3.536,3.227
	c-0.018,1.132-0.278,2.191-0.596,3.24c3.802-2.925,8.271-4.892,11.405-0.927c0.173,0.22,0.17,0.439,0.063,0.643
	c1.611,0.079,3.1,0.742,4.298,2.312c0.016,0.021,0.01,0.048-0.005,0.079c0.805,0.231,1.606,0.627,2.399,1.237
	c0.242,0.187,0.173,0.419-0.061,0.638c0.572,0.298,0.787,0.833-0.068,1.36c-4.357,2.681-8.873,5.55-12.124,9.58
	c-2.62,3.247-4.12,7.132-6.637,10.412c-2.926,3.813-6.296,4.808-9.738,2.874c0.03,0.259,0.077,0.516,0.113,0.774
	c0.825-0.215,1.812,0.029,1.833,0.937c0.256,11.117-3.875,21.23-8.678,31.032c0.131,0.154,0.202,0.357,0.176,0.622
	c-0.037,0.368-0.101,0.737-0.152,1.106c5.197,0.319,9.971-0.627,14.256-2.536c4.675-2.083,8.768-5.309,12.2-9.276
	c0.843-0.974,1.646-1.992,2.407-3.049c0.393-0.545,0.771-1.102,1.143-1.667c2.536-3.867,4.558-8.175,6-12.671
	c0.49-1.529,0.911-3.073,1.284-4.626c-0.052-0.09-0.02-0.192,0.075-0.299c2.92-12.417,2.164-25.489-1.32-37.772
	c-3.107-10.957-8.105-19.857-14.793-28.975c-7.912-10.788-16.967-23.865-29.501-29.625c-0.094-0.043-0.183-0.094-0.276-0.136
	c-0.25,0.118-0.5,0.235-0.748,0.354c-3.287,1.568-6.529,3.212-9.474,5.308c-7.341,5.225-10.439,12.966-13.865,20.995
	c-5.603,13.133-10.771,26.825-13.397,40.947c-0.311,1.673-0.593,3.35-0.828,5.035c-0.135,0.962-0.261,1.925-0.369,2.891
	c-1.054,9.391-3.527,25.112,5.572,31.68C191.604,289.565,210.938,280.722,223.859,272.86z M226.146,245.713
	c1.084,6.383-0.324,12.954-0.255,19.4c0.138,0.053,0.264,0.124,0.366,0.223c6.298,6.096,9.681-5.92,12.9-9.91
	c3.576-4.433,7.998-7.693,12.785-10.685c-3.854-2.834-8.387,2.95-10.909,5.48c-0.688,0.691-3.537,0.708-2.33-0.502
	c2.581-2.59,6.212-6.357,10.053-7.324c-3.169-2.812-7.787,1.299-10.575,3.387c-0.547,0.41-3.226,0.686-2.619,0.231
	c2.307-1.728,6.01-4.565,9.582-5.605c-3.471-4.009-9.48,3.291-11.977,5.796c-0.757,0.761-3.596,0.628-2.359-0.613
	c0.601-0.604,1.34-1.356,2.173-2.16c-0.054-0.061-0.075-0.138-0.049-0.233c0.642-2.331,2.477-6.012,0.139-7.657
	c-1.672,1.369-2.449,3.244-3.389,5.293C228.801,242.757,227.695,244.326,226.146,245.713z M197.328,251.917
	c2.254-0.824,4.51-1.641,6.767-2.452c4.017-1.445,8.038-2.879,12.047-4.346c1.515-0.554,3.03-1.106,4.536-1.684
	c0.573-0.22,1.15-0.438,1.717-0.675c0.013-0.005,0.016-0.006,0.027-0.011c0.313-0.579,2.246-0.775,2.608-0.697
	c0.017,0.003,0.034,0.007,0.051,0.011c0.151,0.033,0.311,0.155,0.255,0.326c0.096,0.29,0.166,0.582,0.249,0.872
	c0.513-0.856,0.977-1.779,1.438-2.709c-0.043-0.057-0.078-0.121-0.104-0.192c-3.402-9.626-12.902-14.809-17.598-23.435
	c-1.721,5.895-3.567,11.755-5.428,17.592c-1.413,4.435-2.831,8.873-4.381,13.262C199.034,249.137,198.721,251.192,197.328,251.917z
	 M207.857,340.541c-0.646,1.949-1.293,3.897-1.945,5.844c0.043,0.027,0.084,0.053,0.133,0.091c1.317,1.011,2.64,2.015,3.98,2.994
	c7.998,5.836,17.116,9.728,26.914,10.72c0.738-0.177,1.529-0.154,1.627,0.147c1.492,0.101,3,0.134,4.521,0.096
	c5.335-0.133,10.952-0.831,15.869-3.044c4.776-2.149,10.744-5.304,14.335-9.249c5.371-5.9,7.438-14.539,8.851-22.171
	c2.556-13.822,3.482-28.284,2.828-42.337c-0.013-0.279,0.111-0.515,0.309-0.705c-0.783-6.289-2.524-12.462-4.799-18.46
	c-5.336,5.07-14.018,7.384-21.164,5.619c-1.46,5.603-3.714,10.989-6.947,15.935c-7.924,12.119-18.887,19.587-33.316,18.858
	c-0.895,4.432-2.621,8.896-3.924,13.089C212.782,325.516,210.341,333.036,207.857,340.541z M108.464,504.603
	c-1.275,0.836-7.308,3.967-6.862,6.026c0.443,2.051,7.306,1.617,8.831,1.729c6.115,0.446,12.295,0.892,18.429,0.609
	c2.877-0.133,6.566-0.029,9.163-1.444c2.331-1.27,3.792-4.893,5.1-7.083c1.563-2.619,3.106-5.502,4.876-8.199
	c0.071-0.308,0.141-0.617,0.215-0.923c0.104-0.427,0.553-0.749,1.07-0.928c1.233-1.681,2.584-3.244,4.141-4.538
	c0.548-0.455,3.287-0.732,2.633-0.188c-1.92,1.596-3.528,3.534-4.975,5.633c-0.641,2.697-1.135,5.449-1.501,8.195
	c-0.384,2.882-1.714,8.594,2.758,7.924c0.778-5.424,1.907-10.611,5.051-15.231c3.449-5.071,7.265-10.761,3.255-16.325
	c-0.462,0.423-0.923,0.849-1.387,1.269c-0.159,0.145-0.48,0.265-0.841,0.345c-5.028,4.325-13.536,11.07-20.483,13.973
	c-0.604,0.252-1.195,0.478-1.771,0.667c-4.483,1.478-8.051,0.95-9.146-3.517c-1.709,1.184-3.425,2.325-5.113,3.433
	C117.462,498.947,112.907,501.688,108.464,504.603z M235.178,362.166c-6.738-0.747-13.861-2.439-19.522-5.712
	c-1.937-1.12-3.807-2.364-5.644-3.66c-7.725,18.547-15.81,36.93-25.218,54.697c-12.938,24.434-27.491,47.992-42.014,71.503
	c-0.124,0.2-0.429,0.349-0.794,0.456c-3.541,4.391-7.989,8.125-12.619,11.481c0.227,0.03,0.387,0.107,0.412,0.248
	c2.234,12.516,25.627-8.975,29.797-12.907c0.083-0.078,0.227-0.151,0.4-0.217c11.723-10.915,22.715-23.02,30.44-37.115
	c4.604-8.398,7.698-17.28,10.99-26.234c3.325-9.046,7.932-15.8,14.353-23.031c3.71-4.177,7.794-8.167,10.983-12.773
	C230.32,373.737,232.82,367.965,235.178,362.166z M248.379,497.52c-14.251,4.357-25.126-9.3-32.817-19.346
	c-0.103,0.104-0.197,0.212-0.303,0.315c-0.191,0.187-0.511,0.318-0.864,0.392c-4.649,4.239-3.314,10.088,1.054,14.643
	c0.364,0.06,0.671,0.229,0.805,0.549c2.277,5.461,1.79,12.542-0.052,18.2c2.068,0.109,4.137,0.257,6.207,0.344
	c-1.114-3.821-0.272-7.876,0.201-11.793c-1.056-0.251-0.569-1.031,0.232-1.512c0.516-1.036,2.865-1.257,2.835,0.033
	c2.966,1.111,5.192,3.509,7.593,5.559c4.273,3.649,9.073,6.413,14.835,6.71c4.96,0.256,9.936-0.07,14.888-0.355
	c1.895-0.109,4.589-0.701,6.617-0.271C269.504,506.474,252.482,498.725,248.379,497.52z M275.504,349.234
	c-6.7,7.164-16.746,11.529-26.685,12.898c-0.04,9.545-5.63,18.338-10.254,26.339c-5.808,10.046-11.251,19.756-11.839,31.584
	c-0.902,18.137,3.26,40.978-9.234,55.995c0.034,0.029,0.07,0.058,0.098,0.093c6.498,8.5,16.291,22.402,28.604,20.183
	c-6.016-5.798-12.099-14.044-10.955-22.841c0.801-6.168,3.029-12.466,4.817-18.409c2.277-7.564,4.762-15.064,7.407-22.508
	C257.278,404.951,268.673,377.793,275.504,349.234z M496.867,510.141c0.945,0,0.07,0.521-0.801,0.871
	c-0.54,0.602-1.938,0.835-2.478,0.31c-68.717,0-137.435,0-206.151,0c-0.682,0.455-1.895,0.557-2.301,0c-0.24,0-0.48,0-0.721,0
	c-0.865,0-0.204-0.437,0.582-0.779c0-48.361,0-96.722,0-145.083c-0.193,0-0.387,0-0.58,0c-0.945,0-0.07-0.521,0.801-0.871
	c0.54-0.602,1.938-0.835,2.478-0.31c11.015,0,22.028,0,33.042,0c0-35.525,0-71.05,0-106.575c-0.046,0-0.093,0-0.139,0
	c-0.707,0-0.396-0.292,0.171-0.585c0.263-0.828,2.084-1.235,2.688-0.595c13.231,0,26.464,0,39.695,0c0-20.353,0-40.706,0-61.059
	c-0.391-0.032-0.304-0.198,0-0.397c0-0.001,0-0.003,0-0.005c0-0.972,2.124-1.501,2.745-0.771c23.328,0,46.655,0,69.982,0
	c0.682-0.455,1.895-0.557,2.301,0c0.563,0,0.477,0.186,0.133,0.409c0.001,0.014,0.006,0.024,0.006,0.038c0,20.594,0,41.189,0,61.784
	c2.657,0,5.314,0,7.973,0c0.682-0.334,1.689-0.414,2.074,0c0.104,0,0.206,0,0.309,0c0.697,0,0.402,0.284-0.148,0.573
	c0,17.417,0,34.834,0,52.252c7.939,0,15.879,0,23.818,0c0.684-0.456,1.899-0.557,2.304,0.003c0.484,0.011,0.427,0.176,0.127,0.381
	c0.002,0.022,0.009,0.04,0.009,0.063c0,18.161,0,36.322,0,54.483c6.354,0,12.708,0,19.063,0c0.682-0.455,1.895-0.557,2.301,0
	c0.24,0,0.48,0,0.721,0c0.865,0,0.204,0.437-0.582,0.779c0,48.361,0,96.722,0,145.083
	C496.48,510.141,496.674,510.141,496.867,510.141z M448.527,310.528c0,0.228,0,0.455,0,0.682c0,0.983-2.902,1.596-2.902,0.349
	c0-0.344,0-0.687,0-1.031c-11.578,0-23.156,0-34.734,0c0,17.917,0,35.833,0,53.75c20.326,0,40.65,0,60.977,0
	c0-17.917,0-35.833,0-53.75C464.087,310.528,456.308,310.528,448.527,310.528z M366.071,256.523c23.11,0,46.221,0,69.331,0
	c0-20.35,0-40.7,0-61.05c-23.11,0-46.221,0-69.331,0C366.071,215.823,366.071,236.173,366.071,256.523z M323.656,364.278
	c28.105,0,56.211,0,84.316,0c0-17.92,0-35.841,0-53.761c-0.328-0.038-0.261-0.186,0-0.366c0-0.012,0-0.025,0-0.037
	c0-0.974,2.133-1.504,2.749-0.766c11.635,0,23.269,0,34.903,0c0-17.214,0-34.429,0-51.644c-2.482,0-4.966,0-7.448,0
	c-0.485,0.688-2.077,0.97-2.601,0.353c-23.329,0-46.656,0-69.983,0c-0.683,0.455-1.895,0.557-2.301,0c-0.001,0-0.001,0-0.001,0
	c-0.515,0-0.486-0.155-0.217-0.353c-13.139,0-26.278,0-39.418,0C323.656,293.229,323.656,328.753,323.656,364.278z M311.828,413.988
	c0,31.659,0,63.317,0,94.976c36.03,0,72.061,0,108.09,0c0-31.659,0-63.317,0-94.976
	C383.888,413.988,347.858,413.988,311.828,413.988z M422.266,510.141c23.701,0,47.402,0,71.104,0c0-48.228,0-96.455,0-144.682
	c-6.229,0-12.458,0-18.688,0c-0.426,0.738-2.108,1.059-2.646,0.416c-8.413,0-16.827,0-25.241,0c-12.128,0-24.256,0-36.383,0
	c-0.682,0.455-1.895,0.557-2.301,0c-28.312,0-56.622,0-84.934,0c-0.682,0.455-1.895,0.557-2.301,0c-0.094,0-0.187,0-0.279,0
	c-0.568,0-0.475-0.189-0.123-0.416c-10.853,0-21.705,0-32.559,0c0,48.228,0,96.455,0,144.682c6.957,0,13.914,0,20.871,0
	c-0.579-0.017-0.354-0.261,0.123-0.525c0-31.876,0-63.752,0-95.628c-0.021,0-0.043,0-0.064,0c-0.671,0-0.422-0.263,0.088-0.541
	c0.203-0.865,2.095-1.303,2.703-0.64c36.253,0,72.507,0,108.76,0c0.682-0.455,1.895-0.557,2.301,0c0.068,0,0.137,0,0.205,0
	c0.661,0,0.429,0.255-0.066,0.528c0,31.876,0,63.752,0,95.628c0.022,0,0.044,0,0.066,0c0.672,0,0.421,0.264-0.091,0.542
	C422.751,509.761,422.545,509.978,422.266,510.141z" fill="#0561fc"></path>
</svg>