<?xml version="1.0" standalone="no"?>
<svg version="1.1" id="Layer_1" xmlns="http://www.w3.org/2000/svg" xmlns:xlink="http://www.w3.org/1999/xlink" x="0px" y="0px" width="595.28px" height="595.28px" viewBox="0 0 595.28 595.28" enable-background="new 0 0 595.28 595.28" xml:space="preserve">
<path id="color_x5F_2" fill="#FBC02D" d="M434.918,281.814c-0.053-0.135-0.107-0.269-0.159-0.404
	c0.876-0.232,1.752-0.466,2.623-0.715L434.918,281.814z M445.836,276.426c0.276-0.314,0.608-0.714,0.95-1.167
	c0.01-0.031,0.021-0.053,0.029-0.085c0.811-2.962,1.029-8.18-1.43-10.566c-0.624-0.606-1.383-1.071-2.218-1.434
	c-0.741,3.262-1.075,6.94,0.263,10.113C443.887,274.369,444.948,276.389,445.836,276.426z M434.309,280.17
	c2.99-0.789,5.947-1.696,8.919-2.551c-0.477-0.26-0.912-0.601-1.26-1.051c-2.837-3.683-2.661-8.675-1.68-12.987
	c0.099-0.431,0.848-0.763,1.559-0.88c-2.437-0.697-5.279-0.696-7.604-0.472c-1.185,4.243-1.687,8.476-1.258,12.295
	C433.196,276.409,433.669,278.301,434.309,280.17z M437.61,372.457c0.149-0.062,0.311-0.109,0.481-0.131
	c5.772-0.759,11.534-1.616,17.292-2.509l-17.725,2.343L437.61,372.457z M525.599,363.144c-7.499,0.215-14.959,0.785-22.395,1.577
	c1.059,3.515,1.985,7.056,2.521,10.568c0.156,1.024-2.758,1.697-2.898,0.776c-0.558-3.655-1.564-7.347-2.691-11
	c-11.928,1.366-23.797,3.252-35.667,5.136c-0.396,2.41-0.766,4.823-1.103,7.243c-0.212,1.521,0.076,5.632-1.805,6.267
	c-0.389,0.13-1.551,0.525-1.892,0.07c-0.093-0.124-0.128-0.198-0.153-0.343c-0.029-0.173,0.057-0.338,0.214-0.485
	c0.035-0.123,0.075-0.281,0.112-0.519c0.133-0.843,0.25-1.688,0.366-2.533c0.358-2.589,0.718-5.179,1.128-7.76
	c0.078-0.494,0.16-0.987,0.241-1.481c-7.772,1.23-15.548,2.436-23.343,3.467c-0.034,0.154-0.064,0.309-0.098,0.463
	c0.608-0.107,1.168-0.065,1.24,0.238c4.197,17.644,6.11,36.115,9.041,53.999c3.09,18.852,5.817,37.811,9.389,56.58
	c0.149,0.789-2.766,1.473-2.898,0.776c-3.637-19.116-6.412-38.426-9.56-57.627c-2.679-16.347-4.518-33.186-8.085-49.41
	c-0.564,3.326-1.035,6.676-1.584,9.979c-3.127,18.818-6.178,37.648-9.22,56.48c-1.45,8.979-2.896,17.958-4.334,26.94
	c-0.361,2.256-2.31,7.293-0.229,8.962c2.791,2.238,6.513,3.384,9.953,4.167c13.572,3.09,27.259,0.972,40.705-1.73
	c2.379-0.479,4.749-0.996,7.119-1.516c6.6-1.516,13.686-3.232,20.655-4.97c3.031-0.792,6.057-1.605,9.078-2.437
	c9.004-2.477,17.956-5.126,26.928-7.716c0.45-0.13,3.23-1.159,5.593-1.723c-3.337-17.669-5.712-35.561-8.493-53.322
	C530.894,396.017,529.313,379.188,525.599,363.144z M542.45,466.371c0.018,0.042,0.041,0.069,0.063,0.1
	c0.002,0,0.005-0.001,0.007-0.002C542.492,466.439,542.466,466.409,542.45,466.371z M524.659,360.659l-8.117,1.073
	c2.996-0.196,5.997-0.348,9.005-0.439L524.659,360.659z M296.583,155.809c-3.034,1.5-6.308,2.62-9.57,3.362
	c0.049-0.004,0.1-0.008,0.147-0.012C290.893,158.848,293.896,157.657,296.583,155.809z M307.931,136.575
	c-1.486-3.848-2.069-8.179-1.494-12.918c-18.406,0.166-36.811,0.405-55.213,0.749c-1,8.576-0.294,18.035,5.368,24.961
	c4.854,5.937,12.237,9.218,19.832,9.682C289.944,159.874,308.142,152.415,307.931,136.575z M309.244,124.719
	c-0.114,1.56-0.095,3.076,0.052,4.542C309.327,127.4,309.289,125.809,309.244,124.719z M248.764,142.063
	c0.176-0.125,0.424-0.233,0.697-0.319c-0.274-0.895-0.52-1.799-0.713-2.718l-0.255,2.801L248.764,142.063z M248.501,123.298
	l0.006,0.097c0.049-0.001,0.097-0.002,0.145-0.003C248.601,123.362,248.552,123.328,248.501,123.298z M251.083,121.968
	c0.484,0.283,0.42,0.644,0.099,0.957c0.138,0.02,0.221,0.055,0.214,0.107c-0.014,0.101-0.024,0.204-0.038,0.305
	c18.419-0.351,36.839-0.593,55.261-0.764c0.071-0.149,0.18-0.282,0.315-0.397c-2.543-1.815-4.925-4.054-7.309-5.944
	c-6.463-5.125-12.914-10.267-19.376-15.394c-6.528-5.18-13.056-10.361-19.636-15.474c-2.334-1.814-4.667-3.631-7.042-5.392
	c-0.703-0.522-1.405-1.049-2.131-1.541c-0.739-0.501-1.131-0.332-0.041-0.424c0.033-0.022,0.067-0.044,0.102-0.067
	c-0.808,0.148-1.593-0.028-1.399-0.674c0.003-0.008,0.005-0.017,0.008-0.026c0.198-0.665,0.98-1.012,1.624-1.067
	c0.171-0.015,0.348-0.008,0.529,0.013l-0.436-0.36l-60-0.667l1.716,1.454c2.679,1.219,5.846,4.616,7.446,5.855
	c6.652,5.151,13.249,10.377,19.841,15.606c6.785,5.382,13.558,10.78,20.344,16.162C244.366,116.768,247.55,119.907,251.083,121.968z
	 M418.155,153.643c-2.4,1.34-4.953,2.416-7.588,3.229C413.468,156.337,415.922,155.223,418.155,153.643z M424.386,146.774
	c3.227-4.031,5.071-8.602,5.87-13.412c0.372-3.374,0.413-6.647,0.37-8.956c-0.027-0.375-0.064-0.751-0.102-1.127
	c-19.895,0-39.791,0.001-59.688,0.043c-0.151,0.072-0.313,0.133-0.477,0.182c0.41,3.024,0.508,6.097,0.203,9.094
	c0.243,0.007,0.402,0.043,0.395,0.109c-0.504,4.359,0.235,8.171,1.854,11.425c0.106,0.106,0.179,0.242,0.211,0.408
	c1.379,2.61,3.333,4.846,5.681,6.697c1.406,0.735,3.227,1.784,4.699,2.958c3.154,1.575,6.666,2.637,10.262,3.165
	c3.239,0.212,6.869,0.209,10.188,0.078C411.685,156.436,419.374,153.036,424.386,146.774z M371.614,122.225
	c19.218-0.042,38.436-0.045,57.651-0.045c-2.544-1.815-4.928-4.056-7.313-5.947c-6.464-5.125-12.915-10.267-19.377-15.394
	c-6.528-5.18-13.056-10.361-19.636-15.474c-2.334-1.814-4.667-3.631-7.041-5.392c-0.704-0.522-1.406-1.049-2.131-1.541
	c-0.74-0.501-1.131-0.332-0.042-0.424c0.034-0.022,0.067-0.044,0.102-0.067c-0.808,0.148-1.593-0.028-1.399-0.674
	c0.002-0.008,0.005-0.017,0.008-0.026c0.107-0.362,0.393-0.621,0.73-0.799l-62.007-1.615l1.903,1.503
	c2.808,0.846,6.431,4.785,8.18,6.139c6.652,5.151,13.248,10.377,19.84,15.606c6.785,5.382,13.559,10.78,20.345,16.162
	c3.192,2.532,6.376,5.671,9.909,7.732C371.474,122.048,371.559,122.135,371.614,122.225z M285.659,450.159
	c0.459-0.058,1.033-0.209,1.681-0.424c-0.941,0.198-1.884,0.331-2.823,0.401C284.923,450.182,285.313,450.203,285.659,450.159z
	 M237.159,409.659c0,0,0.648,1.768,1.621,4.271c-0.875-3.042-1.67-6.093-2.321-9.171L237.159,409.659z M299.032,422.824
	c-0.496-0.042-0.959-0.096-1.373-0.165c-0.709-0.118-1.656-0.517-2.769-1.125c-6.019-2.205-11.681-5.686-16.497-9.584
	c-14.704-11.904-21.316-30.892-23.327-49.189c-0.234-2.134-0.429-4.313-0.583-6.515c-0.027-0.003-0.062-0.007-0.094-0.01
	c-4.423,10.37-9.924,20.113-16.948,29.031c-0.042,0.053-0.108,0.103-0.187,0.152c0.089,2.199,0.228,4.368,0.385,6.479
	c0.543,7.292,1.965,14.367,4.057,21.371c1.042,3.488,2.155,6.952,3.272,10.417c1.007,3.125,1.645,6.699,4.355,8.825
	c0.48,0.377,0.478,0.813,0.229,1.182c2.409,2.248,5.191,4.128,8.105,5.969c5.643,3.564,10.037,4.651,12.686,4.953
	c-0.228-0.23-0.457-0.452-0.682-0.699c-0.513-0.563,2.197-1.591,2.723-1.015c5.681,6.234,13.05,7.938,20.791,3.779
	c2.684-1.441,5.165-3.155,7.516-5.044c-0.032-0.107,0.045-0.253,0.295-0.447c6.93-5.397,11.908-11.878,17.322-18.688
	c-3.453,0.943-6.996,1.482-10.527,1.485C304.845,423.986,301.912,423.562,299.032,422.824z M309.688,422.897
	c2.331-0.106,4.646-0.437,6.922-0.938c-2.458,0.272-6.353,0.66-10.143,0.856C307.521,422.911,308.592,422.947,309.688,422.897z
	 M356.565,309.38c-7.208-4.038-13.895-8.653-22.159-8.85c5.074,7.176,4.457,21.848-5.181,22.73c-2.727,0.25-7.79-1.347-9.319-4.233
	c-6.982,3.794-15.597,3.965-19.231-4.471c-2.545-5.908-2.27-13.316,2.151-17.848c-2.185-0.244-4.899,0.032-6.69-0.018
	c-3.516-0.098-7.26-0.382-10.734,0.289c-5.741,1.108-12.28,2.415-16.556,6.773c-2.511,2.56-4.136,5.597-5.521,8.794
	c-1.503,4.366-2.8,8.481-3.875,12.098c-2.306,9.627-2.891,19.952-2.237,29.994c0.123,0.023,0.229,0.063,0.31,0.126
	c1.693,1.354,3.797,2.132,6.051,2.556c2.301,0.179,4.937,0.34,7.529,0.407c1.361-0.051,2.678-0.142,3.892-0.229
	c4.337-0.313,9.399-0.551,13.628-2.003c-0.77-11.419,0.252-22.902,0.305-34.374c0.005-0.987,2.901-1.469,2.898-0.776
	c-0.061,13.211-1.543,26.454,0.16,39.629c0.847,6.543,2.172,13.857,6.158,19.317c3.252,4.454,8.842,8.694,14.709,7.085
	c1.412-0.387,2.77-0.94,4.08-1.623c2.826-1.943,6.014-4.603,8.552-6.832c5.398-5.87,9.618-13.49,12.826-19.456
	c3.197-5.945,6.257-12.146,8.755-18.525l2.094-6.282l0.928-2.608c0.153-0.532,0.307-1.063,0.45-1.597
	c-0.074-0.043-0.109-0.099-0.081-0.173c2.148-5.613,3.053-13.354,6.484-18.778L356.565,309.38z M331.215,320.818
	c-2.383,0.874-4.556,0.341-4.556,0.341l-2.49-1.724c0.028,0.028,0.049,0.056,0.078,0.084
	C327.244,322.419,329.555,322.323,331.215,320.818z"></path>
<path id="color_x5F_1" d="M349.265,243.242c2.326,2.484-1.012,3.735-3.152,4.265c-0.206,0.051-1.445,0.403-1.551,0.011
	c-0.104-0.386,1.144-0.715,1.348-0.765c2.996-0.74-0.024-3.284-1.265-4.215c-1.737-1.304-3.794-2.386-5.266-4.004
	c-0.108-0.12,2.321-1.412,2.898-0.776C344.267,239.947,347.229,241.067,349.265,243.242z M326.38,241.844
	c-2.154,1.229-4.292,2.479-6.832,2.558c-1.603,0.05-2.27,2.062-0.289,2.001c3.079-0.095,5.751-1.476,8.371-2.971
	C329.345,242.454,327.777,241.046,326.38,241.844z M341.262,234.331c1.372-0.002,3.033-0.307,3.768-1.595
	c0.3-0.525-1.042-0.439-1.195-0.415c-0.503,0.079-1.131,0.269-1.502,0.667c-0.612,0.031-1.392,0.267-1.794,0.719
	C340.08,234.221,340.932,234.332,341.262,234.331z M321.446,229.307c-0.449-0.421-1.42-0.173-1.902,0.03
	c-2.066,0.872-3.844,2.224-5.434,3.792c-1.169,1.154,1.688,0.955,2.293,0.357c1.244-1.229,2.613-2.433,4.242-3.12
	C320.922,230.25,321.91,229.742,321.446,229.307z M335.124,224.523c1.066-0.045,1.992-0.539,2.736-1.279
	c0.447-0.446,0.307-0.998-0.311-1.156c-0.676-0.174-1.553,0.054-2.049,0.549c-0.012,0.013-0.068,0.063-0.125,0.114
	c-0.573,0.058-1.416,0.431-1.533,1.038C333.707,224.487,334.683,224.542,335.124,224.523z M301.897,260.945
	c-3.378-1.75-7.485,0.498-8.478,3.991c-0.294,1.034,2.619,0.611,2.896-0.366c0.257-0.902,0.673-1.649,1.383-2.27
	c0.601-0.526,1.251-0.29,1.89,0.041C300.425,262.774,303.093,261.564,301.897,260.945z M349.518,259.024
	c0.112,0.171,0.118,0.399-0.052,0.695c-2.708,4.703-8.641,9.206-14.389,8.452c-3.378-0.443-10.344-4.938-8.227-9.302
	c1.564-3.223,6.586-2.809,9.508-2.522c3.812,0.375,8.277,1.999,12.093,1.502C349.64,257.695,349.865,258.396,349.518,259.024z
	 M346.33,260.017c-4.828-0.008-9.72-2.183-14.597-1.709c-4.207,0.409-1.029,5.22,1.127,6.61
	C337.706,268.041,343.546,264.309,346.33,260.017z M542.52,466.469c-0.027-0.03-0.054-0.06-0.069-0.098
	c0.018,0.042,0.041,0.069,0.063,0.1c0.249,0.352,0.685,0.033-0.605,0.37c-0.666,0.174-1.331,0.353-1.994,0.538
	c-1.898,0.532-3.793,1.082-5.686,1.634c-6.022,1.759-12.042,3.528-18.082,5.226c-11.573,3.254-23.201,6.357-34.942,8.953
	c-11.679,2.582-23.604,5.19-35.606,5.381c-7.975,0.127-18.717-0.575-25.531-5.379c-2.204-1.555-2.037-2.458-1.63-5.007
	c0.581-3.645,1.165-7.29,1.75-10.934c3.123-19.454,6.269-38.905,9.45-58.35c1.914-11.697,3.223-23.741,5.939-35.289
	c0.086-0.365,0.771-0.656,1.451-0.786c0.161-0.148,0.357-0.278,0.584-0.371c0.149-0.062,0.311-0.109,0.481-0.131
	c5.772-0.759,11.534-1.616,17.292-2.509c2.168-0.336,4.336-0.677,6.504-1.02c1.068-6.306,2.368-12.601,4.313-18.689
	c0.158-0.496,0.328-1.01,0.508-1.536c-3.172-1.994-6.106-4.786-8.98-6.648c-0.494,0.106-1.003,0.135-1.298,0.084
	c-6.437-1.113-12.889-0.534-19.373-0.377c-6.803,0.164-13.614-0.028-20.418-0.044c-8.33-0.021-16.654,0.097-24.932,0.741
	c0,28.109,0,56.218,0,84.326c0,15.806,0,31.612,0,47.419c0,8.776,0.267,23.638-9.711,27.142c0.063,0.971-1.352,1.667-2.22,1.35
	c0.036,0.005,0.024-0.008-0.084-0.024c0,0,0,0-0.001,0c-0.114-0.017-0.33-0.033-0.704-0.026c-0.84,0.015-1.679,0.046-2.518,0.083
	c-2.943,0.132-5.885,0.311-8.825,0.498c-9.692,0.618-19.378,1.334-29.062,2.068c-31.598,2.395-63.182,5.004-94.742,7.842
	c-12.893,1.16-25.785,2.336-38.658,3.701c-4.034,0.428-8.07,0.858-12.092,1.394c-1.174,0.156-2.354,0.305-3.519,0.523
	c-0.479,0.09-0.749,0.149-0.889,0.179c-0.588,0.411-1.497,0.549-2.031,0.139c-3.018,0.23-6.258,0.265-9.302-0.353
	c-0.244,0.145-0.537,0.252-0.855,0.28c-18.702,1.638-35.627-8.543-38.826-27.924c-1.056-6.392-0.531-12.561-0.477-18.993
	c0.063-7.316-0.197-14.631-0.195-21.948c0.003-13.983,0.023-27.966,0.057-41.949c0.07-29.39,0.188-58.779,0.314-88.169
	c0.243-56.444,0.547-112.889,0.55-169.333c0-0.298,0.274-0.562,0.652-0.75c-0.389-0.019-0.779-0.048-1.167-0.059
	c-1.953-0.054,0.168-1.528,1.166-1.5c7.572,0.21,15.28,1.826,22.78,2.786c7.172,0.917,14.355,1.888,21.556,2.638
	c0.289-0.025,0.565-0.002,0.782,0.082c1.994,0.203,3.989,0.384,5.987,0.545c-1.355-9.367-1.088-18.821-1.515-28.25
	c-0.544,0.015-0.406-0.166-0.019-0.385c-0.041-0.868-0.099-1.735-0.154-2.603c-3.044-1.926-5.829-4.612-8.616-6.823
	c-6.464-5.125-12.915-10.267-19.376-15.394c-6.528-5.18-13.056-10.361-19.635-15.474c-2.335-1.814-4.668-3.631-7.042-5.392
	c-0.703-0.522-1.405-1.049-2.131-1.541c-0.739-0.502-1.13-0.332-0.041-0.424c0.033-0.022,0.067-0.044,0.101-0.066
	c-0.807,0.148-1.591-0.029-1.398-0.675c0.002-0.008,0.005-0.017,0.008-0.026c0.197-0.666,0.98-1.012,1.624-1.067
	c2.879-0.245,7.37,4.737,9.382,6.295c6.652,5.151,13.248,10.377,19.84,15.606c6.785,5.382,13.559,10.78,20.344,16.162
	c2.688,2.132,5.373,4.687,8.262,6.674c0.733-0.164,1.483-0.178,1.5,0.049c0.023,0.317,0.035,0.635,0.057,0.952
	c0.03,0.018,0.061,0.039,0.091,0.057c0.54,0.315,0.394,0.727-0.025,1.061c0.037,0.628,0.082,1.255,0.111,1.884
	c19.152-0.648,38.308-1.141,57.466-1.519c0.049-0.001,0.097-0.002,0.145-0.003c-0.051-0.03-0.1-0.063-0.15-0.094
	c-3.195-1.936-6.098-4.762-9.002-7.065c-6.464-5.125-12.915-10.267-19.377-15.394c-6.527-5.18-13.055-10.361-19.635-15.474
	c-2.335-1.814-4.668-3.631-7.042-5.392c-0.704-0.522-1.406-1.049-2.131-1.541c-0.74-0.501-1.132-0.332-0.042-0.424
	c0.034-0.022,0.068-0.045,0.103-0.067c-0.808,0.149-1.595-0.027-1.4-0.674c0.002-0.008,0.005-0.017,0.008-0.026
	c0.199-0.665,0.979-1.012,1.624-1.067c0.589-0.05,1.248,0.126,1.937,0.44c2.679,1.219,5.846,4.616,7.446,5.855
	c6.652,5.151,13.249,10.377,19.841,15.606c6.785,5.382,13.558,10.78,20.344,16.162c3.192,2.532,6.376,5.671,9.909,7.732
	c0.484,0.283,0.42,0.644,0.099,0.957c0.138,0.02,0.221,0.055,0.214,0.107c-0.014,0.101-0.024,0.204-0.038,0.305
	c18.419-0.351,36.839-0.593,55.261-0.764c0.071-0.149,0.18-0.282,0.315-0.397c-2.543-1.815-4.925-4.054-7.309-5.944
	c-6.463-5.125-12.914-10.267-19.376-15.394c-6.528-5.18-13.056-10.361-19.636-15.474c-2.334-1.814-4.667-3.631-7.042-5.392
	c-0.703-0.522-1.405-1.049-2.131-1.541c-0.739-0.501-1.131-0.332-0.041-0.424c0.033-0.022,0.067-0.044,0.102-0.067
	c-0.808,0.148-1.593-0.028-1.399-0.674c0.003-0.008,0.005-0.017,0.008-0.026c0.198-0.665,0.98-1.012,1.624-1.067
	c0.171-0.015,0.348-0.008,0.529,0.013c2.875,0.324,6.96,4.816,8.854,6.282c6.652,5.151,13.248,10.377,19.84,15.606
	c6.785,5.382,13.559,10.78,20.345,16.162c3.192,2.532,6.376,5.671,9.909,7.732c0.287,0.167,0.373,0.362,0.336,0.559
	c18.533-0.158,37.066-0.243,55.601-0.29c-2.575-1.825-4.984-4.093-7.395-6.005c-6.464-5.125-12.915-10.267-19.377-15.394
	c-6.527-5.18-13.055-10.361-19.635-15.474c-2.334-1.814-4.667-3.631-7.041-5.392c-0.704-0.522-1.405-1.049-2.131-1.541
	c-0.74-0.502-1.13-0.332-0.041-0.424c0.033-0.022,0.066-0.043,0.1-0.065c-0.806,0.147-1.589-0.029-1.397-0.676
	c0.002-0.008,0.005-0.017,0.008-0.026c0.197-0.666,0.981-1.012,1.624-1.067c0.376-0.032,0.78,0.029,1.202,0.156
	c2.808,0.846,6.431,4.785,8.18,6.139c6.652,5.151,13.248,10.377,19.84,15.606c6.785,5.382,13.559,10.78,20.345,16.162
	c3.192,2.532,6.376,5.671,9.909,7.732c0.137,0.08,0.222,0.167,0.277,0.257c19.218-0.042,38.436-0.045,57.651-0.045
	c-2.544-1.815-4.928-4.056-7.313-5.947c-6.464-5.125-12.915-10.267-19.377-15.394c-6.528-5.18-13.056-10.361-19.636-15.474
	c-2.334-1.814-4.667-3.631-7.041-5.392c-0.704-0.522-1.406-1.049-2.131-1.541c-0.74-0.501-1.131-0.332-0.042-0.424
	c0.034-0.022,0.067-0.044,0.102-0.067c-0.808,0.148-1.593-0.028-1.399-0.674c0.002-0.008,0.005-0.017,0.008-0.026
	c0.107-0.362,0.393-0.621,0.73-0.799c0.282-0.149,0.6-0.243,0.894-0.268c2.879-0.245,7.37,4.737,9.382,6.295
	c6.654,5.151,13.25,10.377,19.842,15.606c6.785,5.382,13.559,10.78,20.344,16.162c2.449,1.942,4.895,4.237,7.494,6.133
	c0.839-0.295,1.989-0.412,2.035-0.102c0.076,0.527,0.139,1.057,0.197,1.586c0.062,0.037,0.121,0.079,0.183,0.114
	c0.56,0.327,0.385,0.758-0.069,1.098c0.782,9.338-1.366,18.845-8.414,25.542c-2.075,1.971-4.405,3.643-6.898,5.035
	c-2.4,1.34-4.953,2.416-7.588,3.229c-2.597,0.801-5.27,1.354-7.949,1.654c-3.498,0.391-7.233,0.337-10.911-0.19
	c0,31.17,0,62.34,0,93.51c0,0.205-0.085,0.386-0.218,0.543c4.397-1.199,8.793-2.404,13.191-3.6
	c14.579-3.964,29.344-7.545,43.762-12.075c0.325-0.102,0.585-0.115,0.81-0.094c0.653-0.247,1.437-0.347,1.778-0.055
	c11.134,9.476,14.135,26.589,12.283,40.399c-1.112,8.301-2.34,25.819-12.819,27.903c-0.995,0.198-1.21-0.093-1.018-0.467
	c-0.644,0.343-1.692,0.76-2.204,0.576c-0.598-0.214-1.173-0.507-1.725-0.862c-18.217-2.212-35.963-7.197-53.841-11.307
	c0,1.464,0,2.928,0,4.392c0,1.326,0,2.651,0,3.977c0,1.756,0,3.512,0,5.268c0,0.13-0.038,0.249-0.095,0.36
	c4.446,1.555,2.236,4.299-1.088,6.718c0.738-0.104,1.496,0.128,1.526,0.864c0.019,0.446-0.014,0.86-0.066,1.261
	c0.302-0.15,0.62-0.25,0.889-0.25c24.35-0.007,49.016-0.444,73.003,4.354c4.975-2.643,10.105-5.511,15.908-4.33
	c4.463,0.909,10.017,5.066,11.172,9.813c0.59-0.147,1.235-0.075,1.583,0.371c1.811,2.32,2.194,4.945,1.623,7.462
	c3.235,2.155,2.198,6.312-0.054,9.961c1.152,3.161,2.205,6.36,3.206,9.569c1.054,3.379,2.248,6.85,3.348,10.355
	c4.616-0.502,9.241-0.917,13.88-1.22c2.996-0.196,5.997-0.348,9.005-0.439c0.221-0.007,0.441-0.02,0.662-0.026
	c0.191-0.005,0.351,0.012,0.492,0.039c0.731-0.194,1.513-0.203,1.599,0.16c3.865,16.313,5.443,33.472,8.035,50.02
	c2.798,17.87,5.183,35.873,8.553,53.647c0.01,0.049,0.006,0.098-0.006,0.145c0.231,0.058,0.4,0.156,0.467,0.316
	C545.592,466.18,543.047,467.048,542.52,466.469z M493.107,346.911c-1.07,1.125-2.143,2.021-3.032,2.533
	c-2.797,1.613-6.785,1.965-9.793,0.98c-0.079,0.081-0.172,0.164-0.296,0.25c-3.886,2.701-0.606,5.519,2.974,5.629
	c2.025,0.063,3.821-0.643,5.53-1.68C491.047,353.072,495.594,349.721,493.107,346.911z M486.042,341.15
	c1.829-0.634,3.549-1.947,4.867-3.587c-0.818-2.143-1.935-4.479-3.459-4.979c-0.142-0.046-0.225-0.106-0.262-0.176
	c-0.343,0.036-0.681,0.06-1.009,0.058c0,0,0,0-0.001,0c-0.154,0.31-0.465,0.588-0.968,0.738
	C479.83,334.804,479.388,343.458,486.042,341.15z M479.493,342.345c-2.894,6.867,6.445,9.032,10.705,4.587
	c0.756-0.788,1.855-2.102,2.845-3.61c-0.335-0.907-0.67-1.814-1.028-2.712c-0.063-0.156-0.129-0.336-0.198-0.526
	c-2.436,2.19-5.532,3.628-8.519,3.62C481.886,343.699,480.511,343.202,479.493,342.345z M495.063,335.975
	c-0.306,0.576-0.658,1.134-1.048,1.672c0.298,0.706,0.572,1.421,0.854,2.133C495.354,338.409,495.509,337.075,495.063,335.975z
	 M492.822,328.54c-0.495,1.198-1.469,2.19-2.627,2.875c1.044,0.558,1.854,1.809,2.495,3.115
	C493.465,332.566,493.616,330.455,492.822,328.54z M388.968,307.885c-5.217-1.096-12.901-0.082-18.199,1.772
	c-0.613,0.343-1.69,0.688-2.098,0.582c-0.433-0.003-0.785-0.107-0.846-0.283c-1.497-0.583-2.623-1.511-3.953-2.529
	c-2.328-1.781-4.259,3.028-5.051,4.924c-2.111,5.051-3.314,10.403-5.187,15.535c0.041,0.063,0.06,0.139,0.035,0.231
	c-3.216,12.51-9.197,24.71-15.815,35.731c-5.732,9.546-13.779,21.28-25.411,23.868c-12.968,2.885-20.332-10.444-22.425-21.176
	c-0.637-3.265-1.042-6.538-1.301-9.815c-4.725,1.484-10.118,1.861-14.924,2.143c-5.009,0.293-11.474,0.742-16.372-1.483
	c0.341,3.885,0.856,7.715,1.535,11.427c3.666,20.054,12.642,37.4,30.764,47.694c5.298,3.009,10.702,5.763,16.746,6.31
	c1.054,0.095,2.125,0.131,3.221,0.082c2.331-0.106,4.646-0.437,6.922-0.938c5.574-1.227,10.896-3.59,15.476-7.022
	c9.301-6.97,15.948-16.556,22.133-26.252c5.582-8.753,9.574-16.715,11.953-26.897c1.865-7.988,3.826-16.519,3.962-24.771
	c0.002-0.108,0.065-0.207,0.167-0.298c0.128-0.15,0.347-0.298,0.686-0.432c7.072-2.794,18.471-6.718,17.964-15.844
	c-1.684,1.281-3.795,2.218-5.685,3.153c-1.426,0.705-3.031-0.698-1.25-1.58c3.356-1.661,7.29-2.965,7.11-7.375
	c-0.003-0.059,0.008-0.114,0.019-0.169c-2.536,1.66-5.256,3.045-6.074,3.581c-0.563,0.368-3.486,0.646-2.242-0.169
	c2.25-1.472,4.795-2.438,7.032-3.937C389.708,312.709,393.507,308.839,388.968,307.885z M351.819,303.484
	c-0.207-0.013-0.44-0.033-0.688-0.057c0.312,0.167,0.622,0.338,0.933,0.509C351.915,303.802,351.825,303.646,351.819,303.484z
	 M357.388,309.831c-0.02-0.009-0.041-0.014-0.059-0.023c-0.256-0.141-0.509-0.285-0.764-0.427
	c-7.208-4.038-13.895-8.653-22.159-8.85c5.074,7.176,4.457,21.848-5.181,22.73c-2.727,0.25-7.79-1.347-9.319-4.233
	c-6.982,3.794-15.597,3.965-19.231-4.471c-2.545-5.908-2.27-13.316,2.151-17.848c-2.185-0.244-4.899,0.032-6.69-0.018
	c-3.516-0.098-7.26-0.382-10.734,0.289c-5.741,1.108-12.28,2.415-16.556,6.773c-2.511,2.56-4.136,5.597-5.521,8.794
	c-0.531,1.228-1.031,2.478-1.526,3.736c0.128,0.03,0.196,0.078,0.169,0.147c-0.317,0.794-0.624,1.592-0.889,2.406
	c-0.618,1.901-1.158,3.841-1.629,5.81c-2.306,9.627-2.891,19.952-2.237,29.994c0.123,0.023,0.229,0.063,0.31,0.126
	c1.693,1.354,3.797,2.132,6.051,2.556c2.443,0.46,5.061,0.501,7.529,0.407c1.361-0.051,2.678-0.142,3.892-0.229
	c4.337-0.313,9.399-0.551,13.628-2.003c-0.77-11.419,0.252-22.902,0.305-34.374c0.005-0.987,2.901-1.469,2.898-0.776
	c-0.061,13.211-1.543,26.454,0.16,39.629c0.847,6.543,2.172,13.857,6.158,19.317c3.252,4.454,8.842,8.694,14.709,7.085
	c1.412-0.387,2.77-0.94,4.08-1.623c3.131-1.633,5.977-4.032,8.552-6.832c5.398-5.87,9.618-13.49,12.826-19.456
	c3.197-5.945,6.257-12.146,8.755-18.525c1.146-2.927,2.154-5.895,3.021-8.89c0.153-0.532,0.307-1.063,0.45-1.597
	c-0.074-0.043-0.109-0.099-0.081-0.173c2.148-5.613,3.053-13.354,6.484-18.778C357.085,310.274,357.233,310.05,357.388,309.831z
	 M324.169,319.436c0.028,0.028,0.049,0.056,0.078,0.084c2.997,2.899,5.308,2.803,6.968,1.298c2.558-2.319,3.566-7.994,3.126-11.28
	c-0.4-2.994-1.262-6.486-3.313-8.851c-0.004,0-0.007,0-0.011,0.001c-1.123,0.138-1.393-0.485-1.127-1.085
	c-0.178-0.139-0.363-0.27-0.555-0.394c-0.07,0.294-0.143,0.587-0.209,0.884c-0.022,0.102-0.103,0.197-0.215,0.286
	c-1.102,3.179-2.787,6.258-4.063,9.346C323.388,313.264,321.07,316.342,324.169,319.436z M317.521,316.042
	c-1.09-2.413-2.46-4.64-3.977-6.806c-2.727-3.893-5.608-7.663-7.685-11.958c-0.023-0.048-0.032-0.094-0.044-0.141
	c-0.086,0.023-0.174,0.043-0.263,0.06c-6.161,5.796-4.388,21.971,5.231,22.456C312.833,319.756,318.971,319.252,317.521,316.042z
	 M356.909,262.461c0.648-10.352-3.966-19.093-9.26-27.667c-3.914-6.338-9.413-13.353-10.517-21.012
	c-0.323-1.2-0.509-2.311-0.615-3.292c-1.82,0.489-3.659,0.892-5.489,1.353c-1.467,0.37-3.826,0.81-2.193,2.485
	c0.243,0.249,0.91,0.883,1.063,1.209c1.174,2.505-1.752,4.637-3.67,5.76c-5.811,3.401-13.709,1.423-19.934-0.382l-0.309-0.015
	c0.016,0.07,0.029,0.141,0.031,0.22c0.226,10.257,7.254,25.92-4.059,32.907c-2.387,1.474-4.798,2.302-7.502,2.971
	c-2.18,0.539-6.632,1.152-6.693,4.123c-0.077,3.807,2.247,7.584,5.787,9.061c3.73,1.555,8.175,1.785,9.062-3.149
	c0.248-1.382,3.22-1.712,2.945-0.184c-0.005,0.026-0.013,0.049-0.019,0.076c4.748,7.513,6.15,19.279,2.304,27.652
	c0.306,0.366,0.255,0.896-0.485,1.329c0.002,0.004,0.008,0.008,0.011,0.012c0.584-0.05,1.16,0.106,1.391,0.583
	c3.113,6.442,8.509,11.659,11.38,18.196c1.037-2.849,2.232-5.643,3.432-8.424c0.43-0.996,1.932-5.249,2.766-5.96
	c0.01-0.04,0.02-0.078,0.028-0.117c-0.157-0.12-0.193-0.304-0.016-0.57c0.028-0.042,0.057-0.084,0.085-0.127
	c0.036-0.054,0.088-0.104,0.136-0.154c1.667-6.457,4.785-11.018,10.98-14.117c4.476-2.239,9.502-3.785,12.903-7.665
	c1.095-1.249,2.064-2.611,2.919-4.044c0.045-0.233,0.096-0.463,0.163-0.683c0.082-0.27,0.311-0.495,0.601-0.667
	C355.699,269.162,356.696,265.861,356.909,262.461z M335.493,209.972c0.266-0.071,0.523-0.169,0.783-0.259l-2.006,0.501
	C334.839,210.111,335.274,210.031,335.493,209.972z M363.112,240.957c-0.689-1.762-1.662-3.414-3.107-4.554
	C361.03,237.675,362.124,239.171,363.112,240.957z M318.341,185.753c-0.312-0.054-0.621-0.116-0.931-0.176
	C317.68,185.66,317.988,185.721,318.341,185.753z M388.782,292.141c-1.49-0.333-2.981-0.659-4.474-0.976
	c-0.888,4.916-1.317,9.891-1.956,14.843c-0.039,0.303-0.43,0.566-0.911,0.739c2.285-0.307,4.927-0.683,7.336-0.505
	c0-1.607,0-3.215,0-4.822c0-1.325,0-2.651,0-3.977c0-1.756,0-3.513,0-5.269C388.777,292.163,388.782,292.152,388.782,292.141z
	 M449.272,238.533c-6.266,4.888-11.854,13.513-14.615,22.294c4.518-0.482,10.982-0.423,13.898,3.294
	c2.257,2.877,2.637,9.844-0.035,12.691c0.144,0.321-0.177,0.781-1.092,1.015c-3.375,0.864-6.698,1.91-10.047,2.866
	c-0.871,0.249-1.747,0.483-2.623,0.715c0.052,0.135,0.106,0.27,0.159,0.404c1.384,3.514,3.263,6.917,5.004,10.006
	c1.905,3.38,4.306,8.319,7.755,10.899c0.047,0.005,0.095,0.013,0.143,0.019c0.469,0.056,0.565,0.214,0.457,0.405
	c0.507,0.326,1.037,0.595,1.59,0.805c0.283-0.235,0.669-0.442,1.067-0.521c4.68-0.931,6.616-10.84,7.466-14.577
	c1.106-4.864,1.887-9.794,2.424-14.753C462.119,262.15,458.312,247.013,449.272,238.533z M434.309,280.17
	c2.99-0.789,5.947-1.696,8.919-2.551c-0.477-0.26-0.912-0.601-1.26-1.051c-2.837-3.683-2.661-8.675-1.68-12.987
	c0.099-0.431,0.848-0.763,1.559-0.88c-2.437-0.697-5.279-0.696-7.604-0.472c-1.185,4.243-1.687,8.476-1.258,12.295
	C433.196,276.409,433.669,278.301,434.309,280.17z M446.786,275.259c0.01-0.031,0.021-0.053,0.029-0.085
	c0.811-2.962,1.029-8.18-1.43-10.566c-0.624-0.606-1.383-1.071-2.218-1.434c-0.741,3.262-1.075,6.94,0.263,10.113
	c0.456,1.083,1.518,3.103,2.405,3.14C446.2,276.44,446.534,276.118,446.786,275.259z M382.226,256.502
	c-2.87,0.789-5.741,1.576-8.605,2.388c-0.837,0.237-1.675,0.473-2.508,0.723c-0.764,0.229-0.905,0.514-0.093-0.14
	c-0.142,0.114-0.364,0.204-0.621,0.269c-0.384,0.454-0.872,0.949-1.056,1.239c-0.688,1.09-1.324,2.215-1.838,3.4
	c-1.163,2.684-2.123,5.531-2.485,8.446c-0.708,5.694,0.265,11.985,6.722,13.5c0.248,0.058,0.15,0.208-0.114,0.379
	c0.413-0.01,0.724,0.101,0.729,0.403c0.001,0.062-0.007,0.126-0.007,0.189c0.001,0,0.001,0,0.002,0
	c-0.001,0.002-0.001,0.004-0.002,0.007c0.004,3.241-1.395,6.979-2.038,10.115c-0.69,3.372-1.384,6.743-2.079,10.113
	c0.599,0.46,1.212,0.904,1.889,1.229c3.169-1.016,6.62-1.426,9.885-1.831c-0.342-0.054-0.572-0.208-0.534-0.501
	c0.668-5.189,1.095-10.405,2.073-15.55c0.017-0.09,0.069-0.175,0.14-0.257c-0.444-0.09-0.888-0.186-1.332-0.274
	c-1.589-0.316,1.002-1.597,1.811-1.436c20.386,4.056,40.438,10.242,61.035,13.209c-2.639-2.775-4.656-6.742-6.174-9.529
	c-2.939-5.394-6.948-12.037-7-18.371c-0.101-12.466,6.529-27.508,16.528-35.332c-13.024,3.992-26.313,7.254-39.45,10.826
	C398.809,251.975,390.514,254.225,382.226,256.502z M388.777,252.09c0-31.331,0-62.662,0-93.992c0-0.098,0.024-0.19,0.058-0.278
	c-6.127-1.314-11.858-4.004-15.773-8.204c0.085,35.575,0.894,71.146,0.907,106.721c0,0.21-0.089,0.396-0.229,0.558
	c2.104-0.504,4.301-0.832,5.9-1.272c3.274-0.902,6.553-1.788,9.829-2.683C389.07,252.826,388.777,252.556,388.777,252.09z
	 M370.837,123.322c-0.151,0.072-0.313,0.133-0.477,0.182c0.41,3.024,0.508,6.097,0.203,9.094c0.243,0.007,0.402,0.043,0.395,0.109
	c-0.504,4.359,0.235,8.171,1.854,11.425c0.106,0.106,0.179,0.242,0.211,0.408c1.379,2.61,3.333,4.846,5.681,6.697
	c1.436,1.131,3.015,2.118,4.699,2.958c3.154,1.575,6.666,2.637,10.262,3.165c2.232,0.328,4.496,0.455,6.723,0.368
	c1.152-0.045,2.311-0.142,3.465-0.29c7.832-1.002,15.521-4.402,20.533-10.664c3.227-4.031,5.071-8.602,5.87-13.412
	c0.485-2.919,0.589-5.925,0.37-8.956c-0.027-0.375-0.064-0.751-0.102-1.127C410.63,123.279,390.733,123.28,370.837,123.322z
	 M309.348,123.628c-0.041,0.366-0.077,0.729-0.104,1.09c-0.114,1.56-0.095,3.076,0.052,4.542c0.213,2.136,0.694,4.167,1.402,6.083
	c0.082,0.029,0.131,0.072,0.133,0.128c0.002,0.075-0.003,0.146-0.002,0.22c4.085,10.561,15.18,17.503,27.365,18.439
	c7.674,0.589,16.115-0.885,22.061-6.124c7.055-6.217,8.465-15.518,7.115-24.431c-0.013-0.084-0.014-0.167-0.004-0.246
	C348.026,123.377,328.687,123.463,309.348,123.628z M251.224,124.406c-1,8.576-0.294,18.035,5.368,24.961
	c4.854,5.937,12.237,9.218,19.832,9.682c13.521,0.826,31.718-6.634,31.507-22.474c-1.486-3.848-2.069-8.179-1.494-12.918
	C288.03,123.822,269.626,124.062,251.224,124.406z M191.083,125.95c0.045,1.062,0.086,2.123,0.117,3.185
	c0.441-0.026,0.773,0.014,0.76,0.117c-0.385,2.781-0.604,5.678-0.544,8.568c0.001,0.04,0.003,0.08,0.004,0.12
	c0.149,6.345,1.655,12.654,5.736,17.646c4.853,5.937,12.237,9.218,19.831,9.682c13.615,0.832,31.979-6.733,31.51-22.8
	c-0.004-0.149,0.099-0.285,0.267-0.406c0.176-0.125,0.424-0.233,0.697-0.319c-0.274-0.895-0.52-1.799-0.713-2.718
	c-0.988-4.697-0.953-9.684-0.33-14.569C229.304,124.825,210.192,125.314,191.083,125.95z M184.127,155.422c0,2.177,0,4.354,0,6.531
	c0,111.256,0,222.512,0,333.768c3.678-0.891,9.118-1.29,9.686-1.354c12.508-1.417,25.047-2.573,37.583-3.717
	c31.663-2.891,63.353-5.529,95.055-7.968c11.957-0.92,23.916-1.832,35.885-2.589c1.102-0.07,6.758-1.018,10.563-0.956
	c0-44.75,0-89.499,0-134.249c-0.188,0.039-0.375,0.074-0.563,0.113c-0.888,6.749-2.508,13.537-4.238,19.901
	c-2.738,10.069-7.562,18.058-13.286,26.718c-5.81,8.788-12.294,17.832-21.179,23.778c-3.915,2.62-8.303,4.835-12.9,6.362
	c0.394,0.047,0.604,0.208,0.35,0.529c-3.955,4.972-7.709,9.756-12.094,14.098c-0.007,0.008-0.006,0.013-0.015,0.021
	c-0.638,0.628-1.301,1.259-1.985,1.887c-0.012,0.011-0.023,0.021-0.035,0.032c-0.569,0.521-1.156,1.038-1.754,1.55
	c-5.234,4.486-11.518,8.524-17.858,9.854c-0.941,0.198-1.884,0.331-2.823,0.401c-4.939,0.371-9.82-1.119-14.172-5.524
	c-0.228-0.23-0.457-0.452-0.682-0.699c-0.513-0.563,2.197-1.591,2.723-1.015c5.681,6.234,13.05,7.938,20.791,3.779
	c2.684-1.441,5.165-3.155,7.516-5.044c-0.032-0.107,0.045-0.253,0.295-0.447c6.93-5.397,11.908-11.878,17.322-18.688
	c-3.453,0.943-6.996,1.482-10.527,1.485c-2.938,0.002-5.87-0.422-8.75-1.16c-1.395-0.357-2.777-0.79-4.142-1.29
	c-6.019-2.205-11.681-5.686-16.497-9.584c-14.704-11.904-21.316-30.892-23.327-49.189c-0.234-2.134-0.429-4.313-0.583-6.515
	c-0.027-0.003-0.062-0.007-0.094-0.01c-4.423,10.37-9.924,20.113-16.948,29.031c-0.042,0.053-0.108,0.103-0.187,0.152
	c0.089,2.199,0.228,4.368,0.385,6.479c0.543,7.292,1.965,14.367,4.057,21.371c1.042,3.488,2.155,6.952,3.272,10.417
	c1.007,3.125,1.645,6.699,4.355,8.825c0.48,0.377,0.478,0.813,0.229,1.182c-0.452,0.676-1.732,1.127-2.442,0.571
	c-4.927-3.864-6.099-12.806-7.789-18.464c-0.186-0.622-0.363-1.245-0.542-1.867c-0.875-3.042-1.67-6.093-2.321-9.171
	c-0.794-3.75-1.384-7.539-1.671-11.398c-0.919-12.321-1.49-26.458,4.777-37.586c0.674-1.195,3.623-1.062,2.793,0.412
	c-4.355,7.732-5.325,17.065-5.188,26.113c5.983-8.174,10.771-16.997,14.685-26.327c-1.809-0.199-3.614-0.435-5.402-0.773
	c-5.242-0.991-10.563-2.521-15.193-5.235c-13.652-8.001-16.521-23.844-11.25-38.18c3.98-10.826,11.665-17.678,19.613-25.566
	c4.322-4.291,2.343-10.596,6.191-15.079c3.172-3.696,11.283-6.045,12.339-10.922c1.161-5.367-1.358-10.697,1.092-15.996
	c0.461-0.997,1.097-1.975,1.806-2.947c1.354-4.064,3.509-5.844,4.865-6.867c0.335-0.676,0.605-1.362,0.768-2.063
	c1.204-5.208-0.693-10.643,1.348-15.905c1.045-2.691,2.49-4.794,4.574-6.462c0.773-0.762,1.635-1.318,2.527-1.736
	c1.463-1.076,3.201-1.93,5.441-2.523c4.122-1.092,7.896-0.146,10.427-4.313c1.581-2.603,2.824-5.439,4.671-7.876
	c3.68-4.854,10.577-9.927,16.975-9.995c2.065-0.022,4.017,0.391,6.034,0.801c2.95,0.599,5.077-0.018,7.799-1.029
	c0.441-0.164,0.888-0.323,1.339-0.477c0.002-0.001,0.005-0.003,0.008-0.004c2.388-1.343,4.912-1.878,7.746-1.648
	c0.851-0.047,1.702-0.052,2.553,0.018c4.562,0.378,8.496,2.015,10.656,4.955c1.689,1.414,2.097,3.557,1.759,5.966
	c-0.026,0.99-0.172,2.046-0.458,3.172c-0.625,2.46-1.605,4.93-2.945,7.152c4.912,1.654,9.981,3.525,9.737,9.425
	c-0.296,7.13-3.579,16.945,3.373,21.725c9.966,6.852,9.731,23.665,0.51,31.25c-0.28,0.23-0.941,0.377-1.53,0.397
	c-0.605,2.606-1.523,5.021-2.752,7.213c-0.006,0.038-0.005,0.072-0.018,0.113c-2.854,9.324,11.461,26.589-2.569,31.655
	c-0.434,0.157-0.89,0.139-1.263,0.021c2.117,1.173,4.24,2.414,6.412,3.621c0.146-0.147,0.283-0.304,0.438-0.444
	c1.292-1.176,3.108-2.327,4.964-2.021c0.478,0.079,0.913,0.252,1.333,0.46c0.553-2.679,1.104-5.358,1.653-8.037
	c0.604-2.95,2.052-7.055,2.03-9.845c-0.022-0.063-0.031-0.133-0.008-0.217c0.006-0.02,0.012-0.04,0.018-0.06
	c0.026-0.096,0.099-0.192,0.2-0.285c-0.126,0.014-0.235,0.014-0.315-0.005c-8.84-2.074-8.33-12.275-5.952-19.239
	c1.155-3.383,3.38-9.199,7.396-10.367c0.316-0.128,0.643-0.251,0.981-0.362c-0.42-0.106-0.734-0.376-0.734-0.858
	c-0.015-37.024-0.897-74.043-0.92-111.067c-0.743-1.396-1.313-2.91-1.692-4.541c-1.283,2.928-3.139,5.618-5.719,7.892
	c-6.307,5.558-14.932,7.828-23.221,7.507c-11.889-0.458-23.44-6.039-29.302-15.329c-1.801,6.665-7.152,11.574-13.603,14.764
	c-3.034,1.5-6.308,2.62-9.57,3.362c-2.999,0.682-5.987,1.051-8.766,1.098c-8.027,0.136-16.696-1.951-22.506-7.84
	c-1.978-2.005-3.504-4.227-4.668-6.591c-2.546,13.631-19.584,20.437-32.262,20.652c-8.027,0.136-16.697-1.951-22.506-7.84
	c-1.464-1.484-2.68-3.086-3.688-4.777c0.013,0.087,0.02,0.174,0.033,0.26c0.021,0.138-0.089,0.272-0.271,0.396
	c0.93,0.264-1.33,1.464-2.081,1.412C188.24,155.795,186.183,155.617,184.127,155.422z M189.067,517.388
	c0.25,0.377,0.201,0.74-0.007,1.042C189.259,518.196,189.376,517.854,189.067,517.388z M388.777,465.696c0-15.262,0-30.523,0-45.786
	c0-25.778,0-51.556,0-77.334c-4.344,0.406-8.673,0.977-12.981,1.756c0,45.084,0,90.167,0,135.251
	c0.271,0.128,0.465,0.288,0.563,0.485c0.599,1.197-1.212,2.177-2.187,1.74c0.111,0.039,0.146,0.02-0.007-0.003
	c-0.001,0-0.002,0-0.003-0.001v0l-0.001,0c-0.116-0.017-0.332-0.033-0.703-0.026c-0.839,0.015-1.679,0.046-2.517,0.084
	c-2.944,0.132-5.886,0.311-8.826,0.498c-9.692,0.618-19.378,1.334-29.063,2.068c-31.598,2.395-63.182,5.004-94.742,7.842
	c-12.893,1.16-25.785,2.336-38.658,3.701c-4.034,0.428-8.07,0.858-12.092,1.394c-1.174,0.157-2.354,0.305-3.519,0.523
	c-0.478,0.09-0.749,0.149-0.889,0.178c-0.682,0.477-1.803,0.592-2.259-0.095c-0.281-0.424-0.121-0.803,0.331-1.143
	c0-2.316,0-4.632,0-6.949c0-111.581,0-223.162,0-334.743c-7.243-0.75-14.469-1.726-21.683-2.652
	c-6.176-0.793-12.519-2.059-18.788-2.552c0.036,0.078,0.063,0.163,0.063,0.265c-0.001,21.397-0.05,42.794-0.12,64.19
	c-0.191,58.668-0.525,117.336-0.698,176.005c-0.042,14.245-0.075,28.491-0.092,42.736c-0.017,14.626,0.7,29.358-0.012,43.965
	c-0.54,11.077,1.395,23.407,9.788,31.445c6.536,6.26,15.048,8.939,23.875,8.845c-1.043-0.475-2.033-1.064-2.947-1.802
	c-5.133-4.145-6.76-10.999-7.341-17.288c-1.197-12.973,0.254-26.153,0.046-39.164c-0.223-13.963-0.06-27.938-0.06-41.902
	c0-29.842,0-59.684,0-89.526c0-57.668,0-115.336,0-173.004c0-0.972,2.9-1.589,2.9-0.354c0,18.566,0,37.133,0,55.699
	c0,59.528,0,119.056,0,178.584c0,14.619,0,29.237,0,43.856c0,14.822,0.853,29.814,0,44.61c-0.565,9.811-1.701,21.567,2.366,30.87
	c3.474,7.942,10.653,9.883,18.689,9.313c2.863-1.477,11.408-2.094,12.128-2.175c12.508-1.417,25.047-2.572,37.583-3.717
	c31.663-2.891,63.352-5.529,95.054-7.968c11.957-0.92,23.916-1.832,35.885-2.588c1.196-0.076,7.751-1.186,11.487-0.917
	c0.091-0.03,0.163-0.071,0.271-0.091C391.678,497.561,388.777,474.583,388.777,465.696z M456.708,340.619
	c2.686-6.292,2.392-13.398,5.239-19.672c-23.089-4.305-46.794-3.868-70.189-3.861c-0.046,0-0.078-0.005-0.12-0.007
	c-0.097,0.256-0.208,0.501-0.334,0.738c0.203,0.089,0.348,0.235,0.388,0.455c1.944,10.844-10.426,15.808-18.708,19.073
	c-0.074,2.237-0.253,4.495-0.528,6.764c0.033-0.009,0.067-0.019,0.1-0.026c0.114-0.024,0.229-0.045,0.343-0.069
	c0-0.144,0-0.287,0-0.431c0-0.759,2.898-1.146,2.898-0.776c0,0.211,0,0.423,0,0.635c4.307-0.804,8.636-1.405,12.981-1.845
	c0-0.117,0-0.234,0-0.352c0-1.242,2.93-1.72,2.93-0.245c0,0.107,0,0.215,0,0.322c8.272-0.707,16.597-0.885,24.916-0.864
	c7.982,0.02,15.989,0.304,23.968-0.006C445.976,340.242,451.361,339.963,456.708,340.619z M467.573,346.184
	c2.61-6.817,6.94-14.625,13.724-15.706c-0.651-0.662-1.208-1.465-1.622-2.445c-0.512-1.212,2.361-2.047,2.898-0.776
	c1.057,2.502,5.678,5.105,7.273,1.424c1.369-3.161-1.516-6.443-3.859-8.228c-7.123-5.423-12.813-2.192-19.778,1.458
	c-0.782,0.41-1.602,0.154-1.911-0.311c-2.374,6.11-2.217,12.888-4.924,18.894c0.259-0.019,0.488,0.007,0.645,0.104
	c2.254,1.388,4.254,3.14,6.381,4.705C466.757,345.565,467.152,345.867,467.573,346.184z M464.774,368.339
	c11.586-1.839,23.17-3.682,34.808-5.04c-0.857-2.694-1.753-5.361-2.558-7.968c-0.434-1.405-0.873-2.81-1.32-4.214
	c-1.905,2.787-5.939,5.259-8.409,6.203c-3.082,1.177-7.015,1.461-9.925-0.398c-3.568-2.279-2.285-5.279,0.743-7.385
	c0.049-0.034,0.103-0.062,0.157-0.089c-2.131-1.468-3.064-4.006-1.262-7.675c0.179-0.364,0.791-0.629,1.397-0.725
	c-0.458-0.813-0.67-1.779-0.507-2.86c0.433-2.858,2.212-4.958,4.605-6.232c-6.356-0.35-10.432,7.749-12.972,15.64
	c1.989,1.33,4.258,2.452,6.256,1.948c1.711-0.432,2.022,0.693,0.303,1.127c-2.579,0.651-4.965,0.15-7.222-0.908
	c-1.166,4.007-1.948,7.743-2.441,10.013C465.812,362.617,465.269,365.474,464.774,368.339z M500.331,477.46
	c3.031-0.792,6.057-1.605,9.078-2.437c9.004-2.477,17.956-5.126,26.928-7.716c0.45-0.13,3.23-1.159,5.593-1.723
	c-3.337-17.669-5.712-35.561-8.493-53.322c-2.543-16.245-4.124-33.074-7.838-49.118c-7.499,0.215-14.959,0.785-22.395,1.577
	c1.059,3.515,1.985,7.056,2.521,10.568c0.156,1.024-2.758,1.697-2.898,0.776c-0.558-3.655-1.564-7.347-2.691-11
	c-11.928,1.366-23.797,3.252-35.667,5.136c-0.396,2.41-0.766,4.823-1.103,7.243c-0.212,1.521,0.076,5.632-1.805,6.267
	c-0.389,0.13-1.551,0.525-1.892,0.07c-0.093-0.124-0.128-0.198-0.153-0.343c-0.029-0.173,0.057-0.338,0.214-0.485
	c0.035-0.123,0.075-0.281,0.112-0.519c0.133-0.843,0.25-1.688,0.366-2.533c0.358-2.589,0.718-5.179,1.128-7.76
	c0.078-0.494,0.16-0.987,0.241-1.481c-7.772,1.23-15.548,2.436-23.343,3.467c-0.034,0.154-0.064,0.309-0.098,0.463
	c0.608-0.107,1.168-0.065,1.24,0.238c4.197,17.644,6.11,36.115,9.041,53.999c3.09,18.852,5.817,37.811,9.389,56.58
	c0.149,0.789-2.766,1.473-2.898,0.776c-3.637-19.116-6.412-38.426-9.56-57.627c-2.679-16.347-4.518-33.186-8.085-49.41
	c-0.564,3.326-1.035,6.676-1.584,9.979c-3.127,18.818-6.178,37.648-9.22,56.48c-1.45,8.979-2.896,17.958-4.334,26.94
	c-0.361,2.256-2.31,7.293-0.229,8.962c2.791,2.238,6.513,3.384,9.953,4.167c13.572,3.09,27.259,0.972,40.705-1.73
	c2.379-0.479,4.749-0.996,7.119-1.516C486.594,480.914,493.479,479.251,500.331,477.46z M257.968,458.54
	c0.798-0.06,3.154-1.383,1.234-1.24c-24.899,1.857-33.223-33.753-34.069-52.638c-0.026-0.578-2.937-0.082-2.898,0.776
	C223.136,425.508,231.976,460.478,257.968,458.54z M379.776,502.563c-0.026-0.01-0.056-0.011-0.08-0.022
	C379.733,502.554,379.759,502.56,379.776,502.563z M374.166,481.806c-0.001,0-0.001,0-0.003,0c0.004,0.001,0.006,0.001,0.01,0.003
	C374.171,481.807,374.169,481.807,374.166,481.806z" fill="#0984E3"></path>
</svg>